<mxfile host="app.diagrams.net" modified="2023-03-18T09:30:44.583Z" agent="5.0 (Windows NT 10.0; Win64; x64) AppleWebKit/537.36 (KHTML, like Gecko) Chrome/111.0.0.0 Safari/537.36" etag="nDfZnkhUyY4qE5AUuwiT" version="21.0.6" type="github" pages="4">
  <diagram name="МДНФбулев" id="ZG2q5iKAGUr58elFiiuP">
    <mxGraphModel dx="1514" dy="291" grid="1" gridSize="10" guides="1" tooltips="1" connect="1" arrows="1" fold="1" page="1" pageScale="1" pageWidth="827" pageHeight="1169" math="0" shadow="0">
      <root>
        <mxCell id="0" />
        <mxCell id="1" parent="0" />
        <mxCell id="fN5120LWDgu3ddSydxi1-7" value="" style="group" vertex="1" connectable="0" parent="1">
          <mxGeometry x="510" y="300" width="40" height="60" as="geometry" />
        </mxCell>
        <mxCell id="fN5120LWDgu3ddSydxi1-5" value="&lt;b&gt;&lt;font style=&quot;font-size: 14px;&quot;&gt;&lt;br&gt;&lt;br&gt;&lt;/font&gt;&lt;/b&gt;" style="rounded=0;whiteSpace=wrap;html=1;" vertex="1" parent="fN5120LWDgu3ddSydxi1-7">
          <mxGeometry y="10" width="30" height="50" as="geometry" />
        </mxCell>
        <mxCell id="fN5120LWDgu3ddSydxi1-6" value="&lt;font style=&quot;font-size: 9px;&quot;&gt;1&lt;/font&gt;" style="text;html=1;strokeColor=none;fillColor=none;align=center;verticalAlign=middle;whiteSpace=wrap;rounded=0;" vertex="1" parent="fN5120LWDgu3ddSydxi1-7">
          <mxGeometry width="40" height="30" as="geometry" />
        </mxCell>
        <mxCell id="fN5120LWDgu3ddSydxi1-10" value="" style="group" vertex="1" connectable="0" parent="1">
          <mxGeometry x="200" y="220" width="40" height="60" as="geometry" />
        </mxCell>
        <mxCell id="fN5120LWDgu3ddSydxi1-11" value="&lt;b&gt;&lt;font style=&quot;font-size: 14px;&quot;&gt;&lt;br&gt;&lt;br&gt;&lt;/font&gt;&lt;/b&gt;" style="rounded=0;whiteSpace=wrap;html=1;" vertex="1" parent="fN5120LWDgu3ddSydxi1-10">
          <mxGeometry y="10" width="30" height="50" as="geometry" />
        </mxCell>
        <mxCell id="fN5120LWDgu3ddSydxi1-12" value="&lt;font style=&quot;font-size: 9px;&quot;&gt;1&lt;/font&gt;" style="text;html=1;strokeColor=none;fillColor=none;align=center;verticalAlign=middle;whiteSpace=wrap;rounded=0;" vertex="1" parent="fN5120LWDgu3ddSydxi1-10">
          <mxGeometry width="40" height="30" as="geometry" />
        </mxCell>
        <mxCell id="fN5120LWDgu3ddSydxi1-14" value="" style="group" vertex="1" connectable="0" parent="1">
          <mxGeometry x="210" y="380" width="40" height="60" as="geometry" />
        </mxCell>
        <mxCell id="fN5120LWDgu3ddSydxi1-15" value="&lt;b&gt;&lt;font style=&quot;font-size: 14px;&quot;&gt;&lt;br&gt;&lt;br&gt;&lt;/font&gt;&lt;/b&gt;" style="rounded=0;whiteSpace=wrap;html=1;" vertex="1" parent="fN5120LWDgu3ddSydxi1-14">
          <mxGeometry y="10" width="30" height="50" as="geometry" />
        </mxCell>
        <mxCell id="fN5120LWDgu3ddSydxi1-16" value="&lt;font style=&quot;font-size: 9px;&quot;&gt;1&lt;/font&gt;" style="text;html=1;strokeColor=none;fillColor=none;align=center;verticalAlign=middle;whiteSpace=wrap;rounded=0;" vertex="1" parent="fN5120LWDgu3ddSydxi1-14">
          <mxGeometry width="40" height="30" as="geometry" />
        </mxCell>
        <mxCell id="fN5120LWDgu3ddSydxi1-17" value="" style="group" vertex="1" connectable="0" parent="1">
          <mxGeometry x="270" y="250" width="40" height="60" as="geometry" />
        </mxCell>
        <mxCell id="fN5120LWDgu3ddSydxi1-18" value="&lt;b&gt;&lt;font style=&quot;font-size: 14px;&quot;&gt;&lt;br&gt;&lt;br&gt;&lt;/font&gt;&lt;/b&gt;" style="rounded=0;whiteSpace=wrap;html=1;" vertex="1" parent="fN5120LWDgu3ddSydxi1-17">
          <mxGeometry y="10" width="30" height="50" as="geometry" />
        </mxCell>
        <mxCell id="fN5120LWDgu3ddSydxi1-19" value="&lt;font style=&quot;font-size: 9px;&quot;&gt;&amp;amp;&lt;/font&gt;" style="text;html=1;strokeColor=none;fillColor=none;align=center;verticalAlign=middle;whiteSpace=wrap;rounded=0;" vertex="1" parent="fN5120LWDgu3ddSydxi1-17">
          <mxGeometry width="40" height="30" as="geometry" />
        </mxCell>
        <mxCell id="fN5120LWDgu3ddSydxi1-20" value="" style="group" vertex="1" connectable="0" parent="1">
          <mxGeometry x="110" y="130" width="40" height="60" as="geometry" />
        </mxCell>
        <mxCell id="fN5120LWDgu3ddSydxi1-21" value="&lt;b&gt;&lt;font style=&quot;font-size: 14px;&quot;&gt;&lt;br&gt;&lt;br&gt;&lt;/font&gt;&lt;/b&gt;" style="rounded=0;whiteSpace=wrap;html=1;" vertex="1" parent="fN5120LWDgu3ddSydxi1-20">
          <mxGeometry y="10" width="30" height="50" as="geometry" />
        </mxCell>
        <mxCell id="fN5120LWDgu3ddSydxi1-22" value="&lt;font style=&quot;font-size: 9px;&quot;&gt;&amp;amp;&lt;/font&gt;" style="text;html=1;strokeColor=none;fillColor=none;align=center;verticalAlign=middle;whiteSpace=wrap;rounded=0;" vertex="1" parent="fN5120LWDgu3ddSydxi1-20">
          <mxGeometry width="40" height="30" as="geometry" />
        </mxCell>
        <mxCell id="fN5120LWDgu3ddSydxi1-90" value="&lt;font style=&quot;font-size: 8px;&quot;&gt;1111&lt;/font&gt;" style="text;html=1;strokeColor=none;fillColor=none;align=center;verticalAlign=middle;whiteSpace=wrap;rounded=0;" vertex="1" parent="fN5120LWDgu3ddSydxi1-20">
          <mxGeometry x="-40" y="10" width="40" height="20" as="geometry" />
        </mxCell>
        <mxCell id="fN5120LWDgu3ddSydxi1-23" value="" style="group" vertex="1" connectable="0" parent="1">
          <mxGeometry x="100" y="290" width="40" height="60" as="geometry" />
        </mxCell>
        <mxCell id="fN5120LWDgu3ddSydxi1-24" value="&lt;b&gt;&lt;font style=&quot;font-size: 14px;&quot;&gt;&lt;br&gt;&lt;br&gt;&lt;/font&gt;&lt;/b&gt;" style="rounded=0;whiteSpace=wrap;html=1;" vertex="1" parent="fN5120LWDgu3ddSydxi1-23">
          <mxGeometry x="10" y="60" width="30" height="50" as="geometry" />
        </mxCell>
        <mxCell id="fN5120LWDgu3ddSydxi1-98" value="&lt;font style=&quot;font-size: 8px;&quot;&gt;0011&lt;/font&gt;" style="text;html=1;strokeColor=none;fillColor=none;align=center;verticalAlign=middle;whiteSpace=wrap;rounded=0;" vertex="1" parent="fN5120LWDgu3ddSydxi1-23">
          <mxGeometry x="-40" y="30" width="40" height="20" as="geometry" />
        </mxCell>
        <mxCell id="fN5120LWDgu3ddSydxi1-72" value="x&lt;sub&gt;4&lt;/sub&gt;" style="text;html=1;strokeColor=none;fillColor=none;align=center;verticalAlign=middle;whiteSpace=wrap;rounded=0;" vertex="1" parent="fN5120LWDgu3ddSydxi1-23">
          <mxGeometry x="-70" y="30" width="60" height="30" as="geometry" />
        </mxCell>
        <mxCell id="fN5120LWDgu3ddSydxi1-30" value="" style="group" vertex="1" connectable="0" parent="1">
          <mxGeometry x="110" y="190" width="40" height="80" as="geometry" />
        </mxCell>
        <mxCell id="fN5120LWDgu3ddSydxi1-31" value="&lt;b&gt;&lt;font style=&quot;font-size: 14px;&quot;&gt;&lt;br&gt;&lt;br&gt;&lt;/font&gt;&lt;/b&gt;" style="rounded=0;whiteSpace=wrap;html=1;" vertex="1" parent="fN5120LWDgu3ddSydxi1-30">
          <mxGeometry y="10" width="30" height="50" as="geometry" />
        </mxCell>
        <mxCell id="fN5120LWDgu3ddSydxi1-32" value="&lt;font style=&quot;font-size: 9px;&quot;&gt;&amp;amp;&lt;/font&gt;" style="text;html=1;strokeColor=none;fillColor=none;align=center;verticalAlign=middle;whiteSpace=wrap;rounded=0;" vertex="1" parent="fN5120LWDgu3ddSydxi1-30">
          <mxGeometry width="40" height="30" as="geometry" />
        </mxCell>
        <mxCell id="fN5120LWDgu3ddSydxi1-53" value="" style="endArrow=none;html=1;rounded=0;" edge="1" parent="fN5120LWDgu3ddSydxi1-30">
          <mxGeometry width="50" height="50" relative="1" as="geometry">
            <mxPoint x="30" y="50" as="sourcePoint" />
            <mxPoint x="90" y="50" as="targetPoint" />
            <Array as="points" />
          </mxGeometry>
        </mxCell>
        <mxCell id="fN5120LWDgu3ddSydxi1-93" value="&lt;font style=&quot;font-size: 8px;&quot;&gt;1100&lt;/font&gt;" style="text;html=1;strokeColor=none;fillColor=none;align=center;verticalAlign=middle;whiteSpace=wrap;rounded=0;" vertex="1" parent="fN5120LWDgu3ddSydxi1-30">
          <mxGeometry x="-40" y="60" width="40" height="20" as="geometry" />
        </mxCell>
        <mxCell id="fN5120LWDgu3ddSydxi1-25" value="&lt;font style=&quot;font-size: 9px;&quot;&gt;&amp;amp;&lt;/font&gt;" style="text;html=1;strokeColor=none;fillColor=none;align=center;verticalAlign=middle;whiteSpace=wrap;rounded=0;" vertex="1" parent="1">
          <mxGeometry x="110" y="340" width="40" height="30" as="geometry" />
        </mxCell>
        <mxCell id="fN5120LWDgu3ddSydxi1-35" value="" style="group" vertex="1" connectable="0" parent="1">
          <mxGeometry x="340" y="180" width="40" height="60" as="geometry" />
        </mxCell>
        <mxCell id="fN5120LWDgu3ddSydxi1-36" value="&lt;b&gt;&lt;font style=&quot;font-size: 14px;&quot;&gt;&lt;br&gt;&lt;br&gt;&lt;/font&gt;&lt;/b&gt;" style="rounded=0;whiteSpace=wrap;html=1;" vertex="1" parent="fN5120LWDgu3ddSydxi1-35">
          <mxGeometry y="10" width="30" height="50" as="geometry" />
        </mxCell>
        <mxCell id="fN5120LWDgu3ddSydxi1-37" value="&lt;font style=&quot;font-size: 9px;&quot;&gt;1&lt;/font&gt;" style="text;html=1;strokeColor=none;fillColor=none;align=center;verticalAlign=middle;whiteSpace=wrap;rounded=0;" vertex="1" parent="fN5120LWDgu3ddSydxi1-35">
          <mxGeometry width="40" height="30" as="geometry" />
        </mxCell>
        <mxCell id="fN5120LWDgu3ddSydxi1-38" value="" style="group" vertex="1" connectable="0" parent="1">
          <mxGeometry x="410" y="260" width="40" height="60" as="geometry" />
        </mxCell>
        <mxCell id="fN5120LWDgu3ddSydxi1-39" value="&lt;b&gt;&lt;font style=&quot;font-size: 14px;&quot;&gt;&lt;br&gt;&lt;br&gt;&lt;/font&gt;&lt;/b&gt;" style="rounded=0;whiteSpace=wrap;html=1;" vertex="1" parent="fN5120LWDgu3ddSydxi1-38">
          <mxGeometry y="10" width="30" height="50" as="geometry" />
        </mxCell>
        <mxCell id="fN5120LWDgu3ddSydxi1-40" value="&lt;font style=&quot;font-size: 9px;&quot;&gt;&amp;amp;&lt;/font&gt;" style="text;html=1;strokeColor=none;fillColor=none;align=center;verticalAlign=middle;whiteSpace=wrap;rounded=0;" vertex="1" parent="fN5120LWDgu3ddSydxi1-38">
          <mxGeometry width="40" height="30" as="geometry" />
        </mxCell>
        <mxCell id="fN5120LWDgu3ddSydxi1-41" value="" style="group" vertex="1" connectable="0" parent="1">
          <mxGeometry x="410" y="350" width="40" height="60" as="geometry" />
        </mxCell>
        <mxCell id="fN5120LWDgu3ddSydxi1-42" value="&lt;b&gt;&lt;font style=&quot;font-size: 14px;&quot;&gt;&lt;br&gt;&lt;br&gt;&lt;/font&gt;&lt;/b&gt;" style="rounded=0;whiteSpace=wrap;html=1;" vertex="1" parent="fN5120LWDgu3ddSydxi1-41">
          <mxGeometry y="10" width="30" height="50" as="geometry" />
        </mxCell>
        <mxCell id="fN5120LWDgu3ddSydxi1-43" value="&lt;font style=&quot;font-size: 9px;&quot;&gt;&amp;amp;&lt;/font&gt;" style="text;html=1;strokeColor=none;fillColor=none;align=center;verticalAlign=middle;whiteSpace=wrap;rounded=0;" vertex="1" parent="fN5120LWDgu3ddSydxi1-41">
          <mxGeometry width="40" height="30" as="geometry" />
        </mxCell>
        <mxCell id="fN5120LWDgu3ddSydxi1-48" value="" style="endArrow=none;html=1;rounded=0;entryX=0;entryY=1;entryDx=0;entryDy=0;" edge="1" parent="1" target="fN5120LWDgu3ddSydxi1-22">
          <mxGeometry width="50" height="50" relative="1" as="geometry">
            <mxPoint x="80" y="160" as="sourcePoint" />
            <mxPoint x="80" y="130" as="targetPoint" />
            <Array as="points" />
          </mxGeometry>
        </mxCell>
        <mxCell id="fN5120LWDgu3ddSydxi1-49" value="" style="endArrow=none;html=1;rounded=0;" edge="1" parent="1">
          <mxGeometry width="50" height="50" relative="1" as="geometry">
            <mxPoint x="30" y="230" as="sourcePoint" />
            <mxPoint x="110" y="180" as="targetPoint" />
            <Array as="points">
              <mxPoint x="30" y="180" />
            </Array>
          </mxGeometry>
        </mxCell>
        <mxCell id="fN5120LWDgu3ddSydxi1-50" value="" style="endArrow=none;html=1;rounded=0;entryX=0;entryY=1;entryDx=0;entryDy=0;" edge="1" parent="1">
          <mxGeometry width="50" height="50" relative="1" as="geometry">
            <mxPoint x="80" y="220" as="sourcePoint" />
            <mxPoint x="110" y="219.5" as="targetPoint" />
            <Array as="points" />
          </mxGeometry>
        </mxCell>
        <mxCell id="fN5120LWDgu3ddSydxi1-52" value="" style="endArrow=none;html=1;rounded=0;entryX=0;entryY=1;entryDx=0;entryDy=0;exitX=1;exitY=0.5;exitDx=0;exitDy=0;" edge="1" parent="1" source="fN5120LWDgu3ddSydxi1-84">
          <mxGeometry width="50" height="50" relative="1" as="geometry">
            <mxPoint x="30" y="270" as="sourcePoint" />
            <mxPoint x="110" y="229.5" as="targetPoint" />
            <Array as="points">
              <mxPoint x="30" y="230" />
            </Array>
          </mxGeometry>
        </mxCell>
        <mxCell id="fN5120LWDgu3ddSydxi1-54" value="" style="endArrow=none;html=1;rounded=0;startArrow=none;exitX=0.25;exitY=0;exitDx=0;exitDy=0;" edge="1" parent="1" source="fN5120LWDgu3ddSydxi1-94">
          <mxGeometry width="50" height="50" relative="1" as="geometry">
            <mxPoint x="70" y="270" as="sourcePoint" />
            <mxPoint x="200" y="270" as="targetPoint" />
            <Array as="points" />
          </mxGeometry>
        </mxCell>
        <mxCell id="fN5120LWDgu3ddSydxi1-55" value="" style="endArrow=none;html=1;rounded=0;" edge="1" parent="1">
          <mxGeometry width="50" height="50" relative="1" as="geometry">
            <mxPoint x="230" y="270" as="sourcePoint" />
            <mxPoint x="270" y="270" as="targetPoint" />
            <Array as="points" />
          </mxGeometry>
        </mxCell>
        <mxCell id="fN5120LWDgu3ddSydxi1-56" value="" style="endArrow=none;html=1;rounded=0;entryX=0;entryY=0.6;entryDx=0;entryDy=0;entryPerimeter=0;" edge="1" parent="1" target="fN5120LWDgu3ddSydxi1-18">
          <mxGeometry width="50" height="50" relative="1" as="geometry">
            <mxPoint x="70" y="290" as="sourcePoint" />
            <mxPoint x="260" y="290" as="targetPoint" />
            <Array as="points" />
          </mxGeometry>
        </mxCell>
        <mxCell id="fN5120LWDgu3ddSydxi1-57" value="" style="endArrow=none;html=1;rounded=0;entryX=0;entryY=0.75;entryDx=0;entryDy=0;" edge="1" parent="1" target="fN5120LWDgu3ddSydxi1-36">
          <mxGeometry width="50" height="50" relative="1" as="geometry">
            <mxPoint x="300" y="280" as="sourcePoint" />
            <mxPoint x="350" y="280" as="targetPoint" />
            <Array as="points">
              <mxPoint x="320" y="280" />
              <mxPoint x="320" y="228" />
            </Array>
          </mxGeometry>
        </mxCell>
        <mxCell id="fN5120LWDgu3ddSydxi1-58" value="" style="endArrow=none;html=1;rounded=0;entryX=0;entryY=1;entryDx=0;entryDy=0;" edge="1" parent="1" target="fN5120LWDgu3ddSydxi1-37">
          <mxGeometry width="50" height="50" relative="1" as="geometry">
            <mxPoint x="140" y="170" as="sourcePoint" />
            <mxPoint x="190" y="170" as="targetPoint" />
            <Array as="points">
              <mxPoint x="290" y="170" />
              <mxPoint x="290" y="210" />
            </Array>
          </mxGeometry>
        </mxCell>
        <mxCell id="fN5120LWDgu3ddSydxi1-59" value="" style="endArrow=none;html=1;rounded=0;entryX=0;entryY=1;entryDx=0;entryDy=0;" edge="1" parent="1" target="fN5120LWDgu3ddSydxi1-40">
          <mxGeometry width="50" height="50" relative="1" as="geometry">
            <mxPoint x="370" y="219.5" as="sourcePoint" />
            <mxPoint x="420" y="219.5" as="targetPoint" />
            <Array as="points">
              <mxPoint x="390" y="220" />
              <mxPoint x="390" y="290" />
            </Array>
          </mxGeometry>
        </mxCell>
        <mxCell id="fN5120LWDgu3ddSydxi1-60" value="" style="endArrow=none;html=1;rounded=0;entryX=0;entryY=0.75;entryDx=0;entryDy=0;" edge="1" parent="1" target="fN5120LWDgu3ddSydxi1-16">
          <mxGeometry width="50" height="50" relative="1" as="geometry">
            <mxPoint x="140" y="380" as="sourcePoint" />
            <mxPoint x="190" y="380" as="targetPoint" />
            <Array as="points">
              <mxPoint x="170" y="380" />
              <mxPoint x="170" y="403" />
            </Array>
          </mxGeometry>
        </mxCell>
        <mxCell id="fN5120LWDgu3ddSydxi1-61" value="" style="endArrow=none;html=1;rounded=0;entryX=0;entryY=0.75;entryDx=0;entryDy=0;" edge="1" parent="1" target="fN5120LWDgu3ddSydxi1-39">
          <mxGeometry width="50" height="50" relative="1" as="geometry">
            <mxPoint x="140" y="360" as="sourcePoint" />
            <mxPoint x="190" y="360" as="targetPoint" />
            <Array as="points">
              <mxPoint x="370" y="360" />
              <mxPoint x="370" y="308" />
            </Array>
          </mxGeometry>
        </mxCell>
        <mxCell id="fN5120LWDgu3ddSydxi1-62" value="" style="endArrow=none;html=1;rounded=0;" edge="1" parent="1">
          <mxGeometry width="50" height="50" relative="1" as="geometry">
            <mxPoint x="70" y="340" as="sourcePoint" />
            <mxPoint x="410" y="390" as="targetPoint" />
            <Array as="points">
              <mxPoint x="250" y="340" />
              <mxPoint x="250" y="390" />
            </Array>
          </mxGeometry>
        </mxCell>
        <mxCell id="fN5120LWDgu3ddSydxi1-63" value="" style="endArrow=none;html=1;rounded=0;exitX=1;exitY=0.5;exitDx=0;exitDy=0;" edge="1" parent="1" source="fN5120LWDgu3ddSydxi1-84">
          <mxGeometry width="50" height="50" relative="1" as="geometry">
            <mxPoint x="70" y="322" as="sourcePoint" />
            <mxPoint x="410" y="380" as="targetPoint" />
            <Array as="points">
              <mxPoint x="30" y="320" />
              <mxPoint x="290" y="322" />
              <mxPoint x="290" y="350" />
              <mxPoint x="290" y="380" />
            </Array>
          </mxGeometry>
        </mxCell>
        <mxCell id="fN5120LWDgu3ddSydxi1-64" value="" style="endArrow=none;html=1;rounded=0;entryX=0;entryY=0.5;entryDx=0;entryDy=0;" edge="1" parent="1" target="fN5120LWDgu3ddSydxi1-5">
          <mxGeometry width="50" height="50" relative="1" as="geometry">
            <mxPoint x="440" y="392" as="sourcePoint" />
            <mxPoint x="480" y="340" as="targetPoint" />
            <Array as="points">
              <mxPoint x="460" y="392" />
              <mxPoint x="460" y="335" />
            </Array>
          </mxGeometry>
        </mxCell>
        <mxCell id="fN5120LWDgu3ddSydxi1-65" value="" style="endArrow=none;html=1;rounded=0;" edge="1" parent="1">
          <mxGeometry width="50" height="50" relative="1" as="geometry">
            <mxPoint x="440" y="290" as="sourcePoint" />
            <mxPoint x="510" y="320" as="targetPoint" />
            <Array as="points">
              <mxPoint x="460" y="290" />
              <mxPoint x="460" y="320" />
            </Array>
          </mxGeometry>
        </mxCell>
        <mxCell id="fN5120LWDgu3ddSydxi1-66" value="-x&lt;sub&gt;1&lt;/sub&gt;" style="text;html=1;strokeColor=none;fillColor=none;align=center;verticalAlign=middle;whiteSpace=wrap;rounded=0;" vertex="1" parent="1">
          <mxGeometry x="40" y="145" width="60" height="30" as="geometry" />
        </mxCell>
        <mxCell id="fN5120LWDgu3ddSydxi1-67" value="-x&lt;sub&gt;4&lt;/sub&gt;" style="text;html=1;strokeColor=none;fillColor=none;align=center;verticalAlign=middle;whiteSpace=wrap;rounded=0;" vertex="1" parent="1">
          <mxGeometry x="40" y="205" width="50" height="30" as="geometry" />
        </mxCell>
        <mxCell id="fN5120LWDgu3ddSydxi1-69" value="&lt;i&gt;-x&lt;sub&gt;3&lt;/sub&gt;&lt;/i&gt;" style="text;html=1;strokeColor=none;fillColor=none;align=center;verticalAlign=middle;whiteSpace=wrap;rounded=0;" vertex="1" parent="1">
          <mxGeometry x="30" y="250" width="60" height="30" as="geometry" />
        </mxCell>
        <mxCell id="fN5120LWDgu3ddSydxi1-71" value="x&lt;sub&gt;1&lt;/sub&gt;" style="text;html=1;strokeColor=none;fillColor=none;align=center;verticalAlign=middle;whiteSpace=wrap;rounded=0;" vertex="1" parent="1">
          <mxGeometry x="30" y="270" width="60" height="30" as="geometry" />
        </mxCell>
        <mxCell id="fN5120LWDgu3ddSydxi1-73" value="x&lt;span style=&quot;font-size: 10px;&quot;&gt;5&lt;/span&gt;" style="text;html=1;strokeColor=none;fillColor=none;align=center;verticalAlign=middle;whiteSpace=wrap;rounded=0;" vertex="1" parent="1">
          <mxGeometry x="40" y="350" width="40" height="30" as="geometry" />
        </mxCell>
        <mxCell id="fN5120LWDgu3ddSydxi1-74" value="x&lt;span style=&quot;font-size: 10px;&quot;&gt;2&lt;/span&gt;" style="text;html=1;strokeColor=none;fillColor=none;align=center;verticalAlign=middle;whiteSpace=wrap;rounded=0;" vertex="1" parent="1">
          <mxGeometry x="30" y="370" width="60" height="30" as="geometry" />
        </mxCell>
        <mxCell id="fN5120LWDgu3ddSydxi1-79" value="" style="endArrow=none;html=1;rounded=0;entryX=0;entryY=1;entryDx=0;entryDy=0;" edge="1" parent="1">
          <mxGeometry width="50" height="50" relative="1" as="geometry">
            <mxPoint x="70" y="370" as="sourcePoint" />
            <mxPoint x="110" y="370" as="targetPoint" />
          </mxGeometry>
        </mxCell>
        <mxCell id="fN5120LWDgu3ddSydxi1-80" value="" style="endArrow=none;html=1;rounded=0;entryX=0;entryY=0.75;entryDx=0;entryDy=0;" edge="1" parent="1" target="fN5120LWDgu3ddSydxi1-24">
          <mxGeometry width="50" height="50" relative="1" as="geometry">
            <mxPoint x="70" y="388" as="sourcePoint" />
            <mxPoint x="120" y="380" as="targetPoint" />
          </mxGeometry>
        </mxCell>
        <mxCell id="fN5120LWDgu3ddSydxi1-81" value="" style="endArrow=none;html=1;rounded=0;" edge="1" parent="1">
          <mxGeometry width="50" height="50" relative="1" as="geometry">
            <mxPoint x="240" y="420" as="sourcePoint" />
            <mxPoint x="410" y="400" as="targetPoint" />
            <Array as="points">
              <mxPoint x="370" y="420" />
              <mxPoint x="370" y="400" />
            </Array>
          </mxGeometry>
        </mxCell>
        <mxCell id="fN5120LWDgu3ddSydxi1-82" value="f" style="text;html=1;strokeColor=none;fillColor=none;align=center;verticalAlign=middle;whiteSpace=wrap;rounded=0;" vertex="1" parent="1">
          <mxGeometry x="550" y="320" width="60" height="30" as="geometry" />
        </mxCell>
        <mxCell id="fN5120LWDgu3ddSydxi1-83" value="" style="endArrow=none;html=1;rounded=0;" edge="1" parent="1">
          <mxGeometry width="50" height="50" relative="1" as="geometry">
            <mxPoint x="540" y="340" as="sourcePoint" />
            <mxPoint x="570" y="340" as="targetPoint" />
          </mxGeometry>
        </mxCell>
        <mxCell id="fN5120LWDgu3ddSydxi1-84" value="x&lt;span style=&quot;font-size: 10px;&quot;&gt;3&lt;/span&gt;" style="text;html=1;strokeColor=none;fillColor=none;align=center;verticalAlign=middle;whiteSpace=wrap;rounded=0;" vertex="1" parent="1">
          <mxGeometry x="-30" y="250" width="60" height="30" as="geometry" />
        </mxCell>
        <mxCell id="fN5120LWDgu3ddSydxi1-85" value="" style="endArrow=none;html=1;rounded=0;" edge="1" parent="1">
          <mxGeometry width="50" height="50" relative="1" as="geometry">
            <mxPoint x="10" y="265" as="sourcePoint" />
            <mxPoint x="30" y="264.5" as="targetPoint" />
            <Array as="points" />
          </mxGeometry>
        </mxCell>
        <mxCell id="fN5120LWDgu3ddSydxi1-86" value="" style="shape=waypoint;sketch=0;fillStyle=solid;size=6;pointerEvents=1;points=[];fillColor=none;resizable=0;rotatable=0;perimeter=centerPerimeter;snapToPoint=1;" vertex="1" parent="1">
          <mxGeometry x="20" y="220" width="20" height="20" as="geometry" />
        </mxCell>
        <mxCell id="fN5120LWDgu3ddSydxi1-87" value="" style="shape=waypoint;sketch=0;fillStyle=solid;size=6;pointerEvents=1;points=[];fillColor=none;resizable=0;rotatable=0;perimeter=centerPerimeter;snapToPoint=1;" vertex="1" parent="1">
          <mxGeometry x="20" y="255" width="20" height="20" as="geometry" />
        </mxCell>
        <mxCell id="fN5120LWDgu3ddSydxi1-88" value="-q" style="text;html=1;strokeColor=none;fillColor=none;align=center;verticalAlign=middle;whiteSpace=wrap;rounded=0;" vertex="1" parent="1">
          <mxGeometry x="230" y="395" width="40" height="30" as="geometry" />
        </mxCell>
        <mxCell id="fN5120LWDgu3ddSydxi1-89" value="q" style="text;html=1;strokeColor=none;fillColor=none;align=center;verticalAlign=middle;whiteSpace=wrap;rounded=0;" vertex="1" parent="1">
          <mxGeometry x="130" y="350" width="40" height="30" as="geometry" />
        </mxCell>
        <mxCell id="fN5120LWDgu3ddSydxi1-91" value="&lt;font style=&quot;font-size: 8px;&quot;&gt;0011&lt;/font&gt;" style="text;html=1;strokeColor=none;fillColor=none;align=center;verticalAlign=middle;whiteSpace=wrap;rounded=0;" vertex="1" parent="1">
          <mxGeometry y="250" width="40" height="20" as="geometry" />
        </mxCell>
        <mxCell id="fN5120LWDgu3ddSydxi1-92" value="&lt;font style=&quot;font-size: 8px;&quot;&gt;1100&lt;/font&gt;" style="text;html=1;strokeColor=none;fillColor=none;align=center;verticalAlign=middle;whiteSpace=wrap;rounded=0;" vertex="1" parent="1">
          <mxGeometry x="70" y="205" width="40" height="20" as="geometry" />
        </mxCell>
        <mxCell id="fN5120LWDgu3ddSydxi1-95" value="" style="endArrow=none;html=1;rounded=0;" edge="1" parent="1" target="fN5120LWDgu3ddSydxi1-94">
          <mxGeometry width="50" height="50" relative="1" as="geometry">
            <mxPoint x="70" y="270" as="sourcePoint" />
            <mxPoint x="200" y="270" as="targetPoint" />
            <Array as="points" />
          </mxGeometry>
        </mxCell>
        <mxCell id="fN5120LWDgu3ddSydxi1-94" value="&lt;font style=&quot;font-size: 8px;&quot;&gt;0000&lt;/font&gt;" style="text;html=1;strokeColor=none;fillColor=none;align=center;verticalAlign=middle;whiteSpace=wrap;rounded=0;" vertex="1" parent="1">
          <mxGeometry x="70" y="270" width="40" height="20" as="geometry" />
        </mxCell>
        <mxCell id="fN5120LWDgu3ddSydxi1-99" value="&lt;font style=&quot;font-size: 8px;&quot;&gt;0101&lt;/font&gt;" style="text;html=1;strokeColor=none;fillColor=none;align=center;verticalAlign=middle;whiteSpace=wrap;rounded=0;" vertex="1" parent="1">
          <mxGeometry x="60" y="350" width="40" height="20" as="geometry" />
        </mxCell>
        <mxCell id="fN5120LWDgu3ddSydxi1-100" value="&lt;font style=&quot;font-size: 8px;&quot;&gt;0000&lt;/font&gt;" style="text;html=1;strokeColor=none;fillColor=none;align=center;verticalAlign=middle;whiteSpace=wrap;rounded=0;" vertex="1" parent="1">
          <mxGeometry x="60" y="375" width="40" height="10" as="geometry" />
        </mxCell>
        <mxCell id="fN5120LWDgu3ddSydxi1-103" value="&lt;font style=&quot;font-size: 8px;&quot;&gt;0000&lt;/font&gt;" style="text;html=1;strokeColor=none;fillColor=none;align=center;verticalAlign=middle;whiteSpace=wrap;rounded=0;" vertex="1" parent="1">
          <mxGeometry x="150" y="365" width="40" height="10" as="geometry" />
        </mxCell>
        <mxCell id="fN5120LWDgu3ddSydxi1-104" value="&lt;font style=&quot;font-size: 8px;&quot;&gt;1111&lt;/font&gt;" style="text;html=1;strokeColor=none;fillColor=none;align=center;verticalAlign=middle;whiteSpace=wrap;rounded=0;" vertex="1" parent="1">
          <mxGeometry x="260" y="405" width="40" height="10" as="geometry" />
        </mxCell>
        <mxCell id="fN5120LWDgu3ddSydxi1-106" value="&lt;font style=&quot;font-size: 8px;&quot;&gt;0011&lt;/font&gt;" style="text;html=1;strokeColor=none;fillColor=none;align=center;verticalAlign=middle;whiteSpace=wrap;rounded=0;" vertex="1" parent="1">
          <mxGeometry x="430" y="395" width="40" height="10" as="geometry" />
        </mxCell>
        <mxCell id="fN5120LWDgu3ddSydxi1-111" value="&lt;font style=&quot;font-size: 8px;&quot;&gt;0000&lt;/font&gt;" style="text;html=1;strokeColor=none;fillColor=none;align=center;verticalAlign=middle;whiteSpace=wrap;rounded=0;" vertex="1" parent="1">
          <mxGeometry x="130" y="230" width="40" height="10" as="geometry" />
        </mxCell>
        <mxCell id="fN5120LWDgu3ddSydxi1-112" value="&lt;font style=&quot;font-size: 8px;&quot;&gt;0011&lt;/font&gt;" style="text;html=1;strokeColor=none;fillColor=none;align=center;verticalAlign=middle;whiteSpace=wrap;rounded=0;" vertex="1" parent="1">
          <mxGeometry x="140" y="155" width="40" height="10" as="geometry" />
        </mxCell>
        <mxCell id="fN5120LWDgu3ddSydxi1-113" value="&lt;font style=&quot;font-size: 8px;&quot;&gt;1100&lt;/font&gt;" style="text;html=1;strokeColor=none;fillColor=none;align=center;verticalAlign=middle;whiteSpace=wrap;rounded=0;" vertex="1" parent="1">
          <mxGeometry x="220" y="260" width="40" height="10" as="geometry" />
        </mxCell>
        <mxCell id="fN5120LWDgu3ddSydxi1-114" value="&lt;font style=&quot;font-size: 8px;&quot;&gt;0000&lt;/font&gt;" style="text;html=1;strokeColor=none;fillColor=none;align=center;verticalAlign=middle;whiteSpace=wrap;rounded=0;" vertex="1" parent="1">
          <mxGeometry x="290" y="280" width="40" height="10" as="geometry" />
        </mxCell>
        <mxCell id="fN5120LWDgu3ddSydxi1-115" value="&lt;font style=&quot;font-size: 8px;&quot;&gt;0011&lt;/font&gt;" style="text;html=1;strokeColor=none;fillColor=none;align=center;verticalAlign=middle;whiteSpace=wrap;rounded=0;" vertex="1" parent="1">
          <mxGeometry x="370" y="205" width="40" height="10" as="geometry" />
        </mxCell>
        <mxCell id="fN5120LWDgu3ddSydxi1-116" value="&lt;font style=&quot;font-size: 8px;&quot;&gt;0000&lt;/font&gt;" style="text;html=1;strokeColor=none;fillColor=none;align=center;verticalAlign=middle;whiteSpace=wrap;rounded=0;" vertex="1" parent="1">
          <mxGeometry x="430" y="280" width="40" height="10" as="geometry" />
        </mxCell>
        <mxCell id="fN5120LWDgu3ddSydxi1-117" value="&lt;font style=&quot;font-size: 8px;&quot;&gt;0011&lt;/font&gt;" style="text;html=1;strokeColor=none;fillColor=none;align=center;verticalAlign=middle;whiteSpace=wrap;rounded=0;" vertex="1" parent="1">
          <mxGeometry x="530" y="330" width="40" height="10" as="geometry" />
        </mxCell>
      </root>
    </mxGraphModel>
  </diagram>
  <diagram id="Y_YeFJLy4fAr_bOHALpl" name="МДНФсокр">
    <mxGraphModel dx="1657" dy="352" grid="1" gridSize="10" guides="1" tooltips="1" connect="1" arrows="1" fold="1" page="1" pageScale="1" pageWidth="827" pageHeight="1169" math="0" shadow="0">
      <root>
        <mxCell id="0" />
        <mxCell id="1" parent="0" />
        <mxCell id="G9iVOmePoApAyDge4jj9-172" value="" style="group" vertex="1" connectable="0" parent="1">
          <mxGeometry x="190" y="210" width="40" height="60" as="geometry" />
        </mxCell>
        <mxCell id="G9iVOmePoApAyDge4jj9-173" value="&lt;b&gt;&lt;font style=&quot;font-size: 14px;&quot;&gt;&lt;br&gt;&lt;br&gt;&lt;/font&gt;&lt;/b&gt;" style="rounded=0;whiteSpace=wrap;html=1;" vertex="1" parent="G9iVOmePoApAyDge4jj9-172">
          <mxGeometry y="10" width="30" height="50" as="geometry" />
        </mxCell>
        <mxCell id="G9iVOmePoApAyDge4jj9-174" value="&lt;font style=&quot;font-size: 9px;&quot;&gt;1&lt;/font&gt;" style="text;html=1;strokeColor=none;fillColor=none;align=center;verticalAlign=middle;whiteSpace=wrap;rounded=0;" vertex="1" parent="G9iVOmePoApAyDge4jj9-172">
          <mxGeometry width="40" height="30" as="geometry" />
        </mxCell>
        <mxCell id="G9iVOmePoApAyDge4jj9-175" value="" style="group" vertex="1" connectable="0" parent="1">
          <mxGeometry x="230" y="400" width="40" height="60" as="geometry" />
        </mxCell>
        <mxCell id="G9iVOmePoApAyDge4jj9-176" value="&lt;b&gt;&lt;font style=&quot;font-size: 14px;&quot;&gt;&lt;br&gt;&lt;br&gt;&lt;/font&gt;&lt;/b&gt;" style="rounded=0;whiteSpace=wrap;html=1;" vertex="1" parent="G9iVOmePoApAyDge4jj9-175">
          <mxGeometry y="10" width="30" height="50" as="geometry" />
        </mxCell>
        <mxCell id="G9iVOmePoApAyDge4jj9-177" value="&lt;font style=&quot;font-size: 9px;&quot;&gt;1&lt;/font&gt;" style="text;html=1;strokeColor=none;fillColor=none;align=center;verticalAlign=middle;whiteSpace=wrap;rounded=0;" vertex="1" parent="G9iVOmePoApAyDge4jj9-175">
          <mxGeometry width="40" height="30" as="geometry" />
        </mxCell>
        <mxCell id="G9iVOmePoApAyDge4jj9-178" value="" style="group" vertex="1" connectable="0" parent="1">
          <mxGeometry x="370" y="270" width="40" height="60" as="geometry" />
        </mxCell>
        <mxCell id="G9iVOmePoApAyDge4jj9-179" value="&lt;b&gt;&lt;font style=&quot;font-size: 14px;&quot;&gt;&lt;br&gt;&lt;br&gt;&lt;/font&gt;&lt;/b&gt;" style="rounded=0;whiteSpace=wrap;html=1;" vertex="1" parent="G9iVOmePoApAyDge4jj9-178">
          <mxGeometry y="10" width="30" height="50" as="geometry" />
        </mxCell>
        <mxCell id="G9iVOmePoApAyDge4jj9-180" value="&lt;font style=&quot;font-size: 9px;&quot;&gt;&amp;amp;&lt;/font&gt;" style="text;html=1;strokeColor=none;fillColor=none;align=center;verticalAlign=middle;whiteSpace=wrap;rounded=0;" vertex="1" parent="G9iVOmePoApAyDge4jj9-178">
          <mxGeometry width="40" height="30" as="geometry" />
        </mxCell>
        <mxCell id="nc66vM_Gmf0xlW7SZHAF-6" value="&lt;font style=&quot;font-size: 8px;&quot;&gt;1100&lt;/font&gt;" style="text;html=1;strokeColor=none;fillColor=none;align=center;verticalAlign=middle;whiteSpace=wrap;rounded=0;" vertex="1" parent="G9iVOmePoApAyDge4jj9-178">
          <mxGeometry x="-40" width="40" height="10" as="geometry" />
        </mxCell>
        <mxCell id="G9iVOmePoApAyDge4jj9-181" value="" style="group" vertex="1" connectable="0" parent="1">
          <mxGeometry x="130" y="150" width="40" height="60" as="geometry" />
        </mxCell>
        <mxCell id="G9iVOmePoApAyDge4jj9-182" value="&lt;b&gt;&lt;font style=&quot;font-size: 14px;&quot;&gt;&lt;br&gt;&lt;br&gt;&lt;/font&gt;&lt;/b&gt;" style="rounded=0;whiteSpace=wrap;html=1;" vertex="1" parent="G9iVOmePoApAyDge4jj9-181">
          <mxGeometry y="10" width="30" height="50" as="geometry" />
        </mxCell>
        <mxCell id="G9iVOmePoApAyDge4jj9-183" value="&lt;font style=&quot;font-size: 9px;&quot;&gt;&amp;amp;&lt;/font&gt;" style="text;html=1;strokeColor=none;fillColor=none;align=center;verticalAlign=middle;whiteSpace=wrap;rounded=0;" vertex="1" parent="G9iVOmePoApAyDge4jj9-181">
          <mxGeometry width="40" height="30" as="geometry" />
        </mxCell>
        <mxCell id="G9iVOmePoApAyDge4jj9-184" value="&lt;font style=&quot;font-size: 8px;&quot;&gt;1111&lt;/font&gt;" style="text;html=1;strokeColor=none;fillColor=none;align=center;verticalAlign=middle;whiteSpace=wrap;rounded=0;" vertex="1" parent="G9iVOmePoApAyDge4jj9-181">
          <mxGeometry x="-40" y="10" width="40" height="20" as="geometry" />
        </mxCell>
        <mxCell id="G9iVOmePoApAyDge4jj9-185" value="" style="group" vertex="1" connectable="0" parent="1">
          <mxGeometry x="120" y="310" width="40" height="60" as="geometry" />
        </mxCell>
        <mxCell id="G9iVOmePoApAyDge4jj9-186" value="&lt;b&gt;&lt;font style=&quot;font-size: 14px;&quot;&gt;&lt;br&gt;&lt;br&gt;&lt;/font&gt;&lt;/b&gt;" style="rounded=0;whiteSpace=wrap;html=1;" vertex="1" parent="G9iVOmePoApAyDge4jj9-185">
          <mxGeometry x="10" y="60" width="30" height="50" as="geometry" />
        </mxCell>
        <mxCell id="G9iVOmePoApAyDge4jj9-187" value="&lt;font style=&quot;font-size: 8px;&quot;&gt;0011&lt;/font&gt;" style="text;html=1;strokeColor=none;fillColor=none;align=center;verticalAlign=middle;whiteSpace=wrap;rounded=0;" vertex="1" parent="G9iVOmePoApAyDge4jj9-185">
          <mxGeometry x="-40" y="30" width="40" height="20" as="geometry" />
        </mxCell>
        <mxCell id="G9iVOmePoApAyDge4jj9-188" value="x&lt;sub&gt;4&lt;/sub&gt;" style="text;html=1;strokeColor=none;fillColor=none;align=center;verticalAlign=middle;whiteSpace=wrap;rounded=0;" vertex="1" parent="G9iVOmePoApAyDge4jj9-185">
          <mxGeometry x="-70" y="30" width="60" height="30" as="geometry" />
        </mxCell>
        <mxCell id="G9iVOmePoApAyDge4jj9-189" value="" style="group" vertex="1" connectable="0" parent="1">
          <mxGeometry x="130" y="210" width="40" height="80" as="geometry" />
        </mxCell>
        <mxCell id="G9iVOmePoApAyDge4jj9-190" value="&lt;b&gt;&lt;font style=&quot;font-size: 14px;&quot;&gt;&lt;br&gt;&lt;br&gt;&lt;/font&gt;&lt;/b&gt;" style="rounded=0;whiteSpace=wrap;html=1;" vertex="1" parent="G9iVOmePoApAyDge4jj9-189">
          <mxGeometry y="10" width="30" height="50" as="geometry" />
        </mxCell>
        <mxCell id="G9iVOmePoApAyDge4jj9-191" value="&lt;font style=&quot;font-size: 9px;&quot;&gt;&amp;amp;&lt;/font&gt;" style="text;html=1;strokeColor=none;fillColor=none;align=center;verticalAlign=middle;whiteSpace=wrap;rounded=0;" vertex="1" parent="G9iVOmePoApAyDge4jj9-189">
          <mxGeometry width="40" height="30" as="geometry" />
        </mxCell>
        <mxCell id="G9iVOmePoApAyDge4jj9-192" value="" style="endArrow=none;html=1;rounded=0;" edge="1" parent="G9iVOmePoApAyDge4jj9-189">
          <mxGeometry width="50" height="50" relative="1" as="geometry">
            <mxPoint x="30" y="50" as="sourcePoint" />
            <mxPoint x="60" y="50" as="targetPoint" />
            <Array as="points" />
          </mxGeometry>
        </mxCell>
        <mxCell id="G9iVOmePoApAyDge4jj9-194" value="&lt;font style=&quot;font-size: 9px;&quot;&gt;&amp;amp;&lt;/font&gt;" style="text;html=1;strokeColor=none;fillColor=none;align=center;verticalAlign=middle;whiteSpace=wrap;rounded=0;" vertex="1" parent="1">
          <mxGeometry x="130" y="360" width="40" height="30" as="geometry" />
        </mxCell>
        <mxCell id="G9iVOmePoApAyDge4jj9-198" value="" style="group" vertex="1" connectable="0" parent="1">
          <mxGeometry x="600" y="290" width="40" height="60" as="geometry" />
        </mxCell>
        <mxCell id="G9iVOmePoApAyDge4jj9-199" value="&lt;b&gt;&lt;font style=&quot;font-size: 14px;&quot;&gt;&lt;br&gt;&lt;br&gt;&lt;/font&gt;&lt;/b&gt;" style="rounded=0;whiteSpace=wrap;html=1;" vertex="1" parent="G9iVOmePoApAyDge4jj9-198">
          <mxGeometry y="10" width="30" height="50" as="geometry" />
        </mxCell>
        <mxCell id="G9iVOmePoApAyDge4jj9-200" value="&lt;font style=&quot;font-size: 9px;&quot;&gt;&amp;amp;&lt;/font&gt;" style="text;html=1;strokeColor=none;fillColor=none;align=center;verticalAlign=middle;whiteSpace=wrap;rounded=0;" vertex="1" parent="G9iVOmePoApAyDge4jj9-198">
          <mxGeometry width="40" height="30" as="geometry" />
        </mxCell>
        <mxCell id="G9iVOmePoApAyDge4jj9-201" value="" style="group" vertex="1" connectable="0" parent="1">
          <mxGeometry x="430" y="375" width="40" height="60" as="geometry" />
        </mxCell>
        <mxCell id="G9iVOmePoApAyDge4jj9-202" value="&lt;b&gt;&lt;font style=&quot;font-size: 14px;&quot;&gt;&lt;br&gt;&lt;br&gt;&lt;/font&gt;&lt;/b&gt;" style="rounded=0;whiteSpace=wrap;html=1;" vertex="1" parent="G9iVOmePoApAyDge4jj9-201">
          <mxGeometry y="10" width="30" height="50" as="geometry" />
        </mxCell>
        <mxCell id="G9iVOmePoApAyDge4jj9-203" value="&lt;font style=&quot;font-size: 9px;&quot;&gt;&amp;amp;&lt;/font&gt;" style="text;html=1;strokeColor=none;fillColor=none;align=center;verticalAlign=middle;whiteSpace=wrap;rounded=0;" vertex="1" parent="G9iVOmePoApAyDge4jj9-201">
          <mxGeometry width="40" height="30" as="geometry" />
        </mxCell>
        <mxCell id="G9iVOmePoApAyDge4jj9-204" value="" style="endArrow=none;html=1;rounded=0;entryX=0;entryY=1;entryDx=0;entryDy=0;" edge="1" parent="1" target="G9iVOmePoApAyDge4jj9-183">
          <mxGeometry width="50" height="50" relative="1" as="geometry">
            <mxPoint x="100" y="180" as="sourcePoint" />
            <mxPoint x="100" y="150" as="targetPoint" />
            <Array as="points" />
          </mxGeometry>
        </mxCell>
        <mxCell id="G9iVOmePoApAyDge4jj9-205" value="" style="endArrow=none;html=1;rounded=0;" edge="1" parent="1">
          <mxGeometry width="50" height="50" relative="1" as="geometry">
            <mxPoint x="50" y="250" as="sourcePoint" />
            <mxPoint x="130" y="200" as="targetPoint" />
            <Array as="points">
              <mxPoint x="50" y="200" />
            </Array>
          </mxGeometry>
        </mxCell>
        <mxCell id="G9iVOmePoApAyDge4jj9-206" value="" style="endArrow=none;html=1;rounded=0;entryX=0;entryY=1;entryDx=0;entryDy=0;" edge="1" parent="1">
          <mxGeometry width="50" height="50" relative="1" as="geometry">
            <mxPoint x="100" y="240" as="sourcePoint" />
            <mxPoint x="130" y="239.5" as="targetPoint" />
            <Array as="points" />
          </mxGeometry>
        </mxCell>
        <mxCell id="G9iVOmePoApAyDge4jj9-207" value="" style="endArrow=none;html=1;rounded=0;entryX=0;entryY=1;entryDx=0;entryDy=0;exitX=1;exitY=0.5;exitDx=0;exitDy=0;" edge="1" parent="1">
          <mxGeometry width="50" height="50" relative="1" as="geometry">
            <mxPoint x="50" y="285" as="sourcePoint" />
            <mxPoint x="130" y="249.5" as="targetPoint" />
            <Array as="points">
              <mxPoint x="50" y="250" />
            </Array>
          </mxGeometry>
        </mxCell>
        <mxCell id="G9iVOmePoApAyDge4jj9-208" value="" style="endArrow=none;html=1;rounded=0;startArrow=none;exitX=0.668;exitY=0.514;exitDx=0;exitDy=0;exitPerimeter=0;entryX=0;entryY=0.75;entryDx=0;entryDy=0;" edge="1" parent="1" source="G9iVOmePoApAyDge4jj9-233" target="G9iVOmePoApAyDge4jj9-258">
          <mxGeometry width="50" height="50" relative="1" as="geometry">
            <mxPoint x="50" y="290" as="sourcePoint" />
            <mxPoint x="250" y="280" as="targetPoint" />
            <Array as="points" />
          </mxGeometry>
        </mxCell>
        <mxCell id="G9iVOmePoApAyDge4jj9-209" value="" style="endArrow=none;html=1;rounded=0;entryX=0;entryY=0.75;entryDx=0;entryDy=0;exitX=1;exitY=0.75;exitDx=0;exitDy=0;" edge="1" parent="1" source="G9iVOmePoApAyDge4jj9-258" target="G9iVOmePoApAyDge4jj9-264">
          <mxGeometry width="50" height="50" relative="1" as="geometry">
            <mxPoint x="250" y="290" as="sourcePoint" />
            <mxPoint x="290" y="290" as="targetPoint" />
            <Array as="points" />
          </mxGeometry>
        </mxCell>
        <mxCell id="G9iVOmePoApAyDge4jj9-210" value="" style="endArrow=none;html=1;rounded=0;entryX=0;entryY=0.6;entryDx=0;entryDy=0;entryPerimeter=0;" edge="1" parent="1" target="G9iVOmePoApAyDge4jj9-179">
          <mxGeometry width="50" height="50" relative="1" as="geometry">
            <mxPoint x="90" y="310" as="sourcePoint" />
            <mxPoint x="280" y="310" as="targetPoint" />
            <Array as="points" />
          </mxGeometry>
        </mxCell>
        <mxCell id="G9iVOmePoApAyDge4jj9-212" value="" style="endArrow=none;html=1;rounded=0;" edge="1" parent="1">
          <mxGeometry width="50" height="50" relative="1" as="geometry">
            <mxPoint x="160" y="190" as="sourcePoint" />
            <mxPoint x="490" y="230" as="targetPoint" />
            <Array as="points">
              <mxPoint x="310" y="190" />
              <mxPoint x="310" y="230" />
            </Array>
          </mxGeometry>
        </mxCell>
        <mxCell id="G9iVOmePoApAyDge4jj9-213" value="" style="endArrow=none;html=1;rounded=0;entryX=0;entryY=1;entryDx=0;entryDy=0;" edge="1" parent="1" target="G9iVOmePoApAyDge4jj9-200">
          <mxGeometry width="50" height="50" relative="1" as="geometry">
            <mxPoint x="510" y="250" as="sourcePoint" />
            <mxPoint x="580" y="249.5" as="targetPoint" />
            <Array as="points">
              <mxPoint x="580" y="250" />
              <mxPoint x="580" y="320" />
            </Array>
          </mxGeometry>
        </mxCell>
        <mxCell id="G9iVOmePoApAyDge4jj9-214" value="" style="endArrow=none;html=1;rounded=0;entryX=0;entryY=0.75;entryDx=0;entryDy=0;" edge="1" parent="1" target="G9iVOmePoApAyDge4jj9-177">
          <mxGeometry width="50" height="50" relative="1" as="geometry">
            <mxPoint x="160" y="400" as="sourcePoint" />
            <mxPoint x="210" y="400" as="targetPoint" />
            <Array as="points">
              <mxPoint x="190" y="400" />
              <mxPoint x="190" y="423" />
            </Array>
          </mxGeometry>
        </mxCell>
        <mxCell id="G9iVOmePoApAyDge4jj9-215" value="" style="endArrow=none;html=1;rounded=0;entryX=0;entryY=0.75;entryDx=0;entryDy=0;" edge="1" parent="1" target="G9iVOmePoApAyDge4jj9-199">
          <mxGeometry width="50" height="50" relative="1" as="geometry">
            <mxPoint x="160" y="380" as="sourcePoint" />
            <mxPoint x="210" y="380" as="targetPoint" />
            <Array as="points">
              <mxPoint x="510" y="380" />
              <mxPoint x="510" y="338" />
            </Array>
          </mxGeometry>
        </mxCell>
        <mxCell id="G9iVOmePoApAyDge4jj9-216" value="" style="endArrow=none;html=1;rounded=0;" edge="1" parent="1">
          <mxGeometry width="50" height="50" relative="1" as="geometry">
            <mxPoint x="90" y="360" as="sourcePoint" />
            <mxPoint x="430" y="410" as="targetPoint" />
            <Array as="points">
              <mxPoint x="270" y="360" />
              <mxPoint x="270" y="410" />
            </Array>
          </mxGeometry>
        </mxCell>
        <mxCell id="G9iVOmePoApAyDge4jj9-217" value="" style="endArrow=none;html=1;rounded=0;exitX=1;exitY=0.5;exitDx=0;exitDy=0;" edge="1" parent="1">
          <mxGeometry width="50" height="50" relative="1" as="geometry">
            <mxPoint x="50" y="285" as="sourcePoint" />
            <mxPoint x="430" y="400" as="targetPoint" />
            <Array as="points">
              <mxPoint x="50" y="340" />
              <mxPoint x="310" y="342" />
              <mxPoint x="310" y="370" />
              <mxPoint x="310" y="400" />
            </Array>
          </mxGeometry>
        </mxCell>
        <mxCell id="G9iVOmePoApAyDge4jj9-218" value="" style="endArrow=none;html=1;rounded=0;entryX=0;entryY=0.5;entryDx=0;entryDy=0;exitX=1;exitY=0.75;exitDx=0;exitDy=0;" edge="1" parent="1" target="G9iVOmePoApAyDge4jj9-170" source="G9iVOmePoApAyDge4jj9-278">
          <mxGeometry width="50" height="50" relative="1" as="geometry">
            <mxPoint x="600" y="422" as="sourcePoint" />
            <mxPoint x="640" y="370" as="targetPoint" />
            <Array as="points">
              <mxPoint x="620" y="422" />
              <mxPoint x="620" y="365" />
            </Array>
          </mxGeometry>
        </mxCell>
        <mxCell id="G9iVOmePoApAyDge4jj9-219" value="" style="endArrow=none;html=1;rounded=0;exitX=0.75;exitY=1;exitDx=0;exitDy=0;" edge="1" parent="1" source="G9iVOmePoApAyDge4jj9-200">
          <mxGeometry width="50" height="50" relative="1" as="geometry">
            <mxPoint x="627" y="320" as="sourcePoint" />
            <mxPoint x="717" y="350" as="targetPoint" />
            <Array as="points">
              <mxPoint x="697" y="320" />
              <mxPoint x="697" y="350" />
            </Array>
          </mxGeometry>
        </mxCell>
        <mxCell id="G9iVOmePoApAyDge4jj9-220" value="-x&lt;sub&gt;1&lt;/sub&gt;" style="text;html=1;strokeColor=none;fillColor=none;align=center;verticalAlign=middle;whiteSpace=wrap;rounded=0;" vertex="1" parent="1">
          <mxGeometry x="60" y="165" width="60" height="30" as="geometry" />
        </mxCell>
        <mxCell id="G9iVOmePoApAyDge4jj9-221" value="-x&lt;sub&gt;4&lt;/sub&gt;" style="text;html=1;strokeColor=none;fillColor=none;align=center;verticalAlign=middle;whiteSpace=wrap;rounded=0;" vertex="1" parent="1">
          <mxGeometry x="60" y="225" width="50" height="30" as="geometry" />
        </mxCell>
        <mxCell id="G9iVOmePoApAyDge4jj9-222" value="&lt;i&gt;x&lt;sub&gt;3&lt;/sub&gt;&lt;/i&gt;" style="text;html=1;strokeColor=none;fillColor=none;align=center;verticalAlign=middle;whiteSpace=wrap;rounded=0;" vertex="1" parent="1">
          <mxGeometry x="-20" y="270" width="60" height="30" as="geometry" />
        </mxCell>
        <mxCell id="G9iVOmePoApAyDge4jj9-223" value="x&lt;sub&gt;1&lt;/sub&gt;" style="text;html=1;strokeColor=none;fillColor=none;align=center;verticalAlign=middle;whiteSpace=wrap;rounded=0;" vertex="1" parent="1">
          <mxGeometry x="50" y="290" width="60" height="30" as="geometry" />
        </mxCell>
        <mxCell id="G9iVOmePoApAyDge4jj9-224" value="x&lt;span style=&quot;font-size: 10px;&quot;&gt;5&lt;/span&gt;" style="text;html=1;strokeColor=none;fillColor=none;align=center;verticalAlign=middle;whiteSpace=wrap;rounded=0;" vertex="1" parent="1">
          <mxGeometry x="60" y="370" width="40" height="30" as="geometry" />
        </mxCell>
        <mxCell id="G9iVOmePoApAyDge4jj9-225" value="x&lt;span style=&quot;font-size: 10px;&quot;&gt;2&lt;/span&gt;" style="text;html=1;strokeColor=none;fillColor=none;align=center;verticalAlign=middle;whiteSpace=wrap;rounded=0;" vertex="1" parent="1">
          <mxGeometry x="50" y="390" width="60" height="30" as="geometry" />
        </mxCell>
        <mxCell id="G9iVOmePoApAyDge4jj9-226" value="" style="endArrow=none;html=1;rounded=0;entryX=0;entryY=1;entryDx=0;entryDy=0;" edge="1" parent="1">
          <mxGeometry width="50" height="50" relative="1" as="geometry">
            <mxPoint x="90" y="390" as="sourcePoint" />
            <mxPoint x="130" y="390" as="targetPoint" />
          </mxGeometry>
        </mxCell>
        <mxCell id="G9iVOmePoApAyDge4jj9-227" value="" style="endArrow=none;html=1;rounded=0;entryX=0;entryY=0.75;entryDx=0;entryDy=0;" edge="1" parent="1" target="G9iVOmePoApAyDge4jj9-186">
          <mxGeometry width="50" height="50" relative="1" as="geometry">
            <mxPoint x="90" y="408" as="sourcePoint" />
            <mxPoint x="140" y="400" as="targetPoint" />
          </mxGeometry>
        </mxCell>
        <mxCell id="G9iVOmePoApAyDge4jj9-228" value="" style="endArrow=none;html=1;rounded=0;" edge="1" parent="1">
          <mxGeometry width="50" height="50" relative="1" as="geometry">
            <mxPoint x="260" y="440" as="sourcePoint" />
            <mxPoint x="430" y="420" as="targetPoint" />
            <Array as="points">
              <mxPoint x="390" y="440" />
              <mxPoint x="390" y="420" />
            </Array>
          </mxGeometry>
        </mxCell>
        <mxCell id="G9iVOmePoApAyDge4jj9-229" value="f" style="text;html=1;strokeColor=none;fillColor=none;align=center;verticalAlign=middle;whiteSpace=wrap;rounded=0;" vertex="1" parent="1">
          <mxGeometry x="810" y="350" width="30" height="30" as="geometry" />
        </mxCell>
        <mxCell id="G9iVOmePoApAyDge4jj9-231" value="" style="endArrow=none;html=1;rounded=0;" edge="1" parent="1">
          <mxGeometry width="50" height="50" relative="1" as="geometry">
            <mxPoint x="30" y="285" as="sourcePoint" />
            <mxPoint x="50" y="284.5" as="targetPoint" />
            <Array as="points" />
          </mxGeometry>
        </mxCell>
        <mxCell id="G9iVOmePoApAyDge4jj9-232" value="" style="shape=waypoint;sketch=0;fillStyle=solid;size=6;pointerEvents=1;points=[];fillColor=none;resizable=0;rotatable=0;perimeter=centerPerimeter;snapToPoint=1;" vertex="1" parent="1">
          <mxGeometry x="40" y="240" width="20" height="20" as="geometry" />
        </mxCell>
        <mxCell id="G9iVOmePoApAyDge4jj9-233" value="" style="shape=waypoint;sketch=0;fillStyle=solid;size=6;pointerEvents=1;points=[];fillColor=none;resizable=0;rotatable=0;perimeter=centerPerimeter;snapToPoint=1;" vertex="1" parent="1">
          <mxGeometry x="40" y="275" width="20" height="20" as="geometry" />
        </mxCell>
        <mxCell id="G9iVOmePoApAyDge4jj9-234" value="-q" style="text;html=1;strokeColor=none;fillColor=none;align=center;verticalAlign=middle;whiteSpace=wrap;rounded=0;" vertex="1" parent="1">
          <mxGeometry x="250" y="415" width="40" height="30" as="geometry" />
        </mxCell>
        <mxCell id="G9iVOmePoApAyDge4jj9-235" value="q" style="text;html=1;strokeColor=none;fillColor=none;align=center;verticalAlign=middle;whiteSpace=wrap;rounded=0;" vertex="1" parent="1">
          <mxGeometry x="150" y="370" width="40" height="30" as="geometry" />
        </mxCell>
        <mxCell id="G9iVOmePoApAyDge4jj9-236" value="&lt;font style=&quot;font-size: 8px;&quot;&gt;0011&lt;/font&gt;" style="text;html=1;strokeColor=none;fillColor=none;align=center;verticalAlign=middle;whiteSpace=wrap;rounded=0;" vertex="1" parent="1">
          <mxGeometry x="10" y="270" width="40" height="20" as="geometry" />
        </mxCell>
        <mxCell id="G9iVOmePoApAyDge4jj9-237" value="&lt;font style=&quot;font-size: 8px;&quot;&gt;1100&lt;/font&gt;" style="text;html=1;strokeColor=none;fillColor=none;align=center;verticalAlign=middle;whiteSpace=wrap;rounded=0;" vertex="1" parent="1">
          <mxGeometry x="90" y="225" width="40" height="20" as="geometry" />
        </mxCell>
        <mxCell id="G9iVOmePoApAyDge4jj9-238" value="" style="endArrow=none;html=1;rounded=0;" edge="1" parent="1" target="G9iVOmePoApAyDge4jj9-239">
          <mxGeometry width="50" height="50" relative="1" as="geometry">
            <mxPoint x="90" y="290" as="sourcePoint" />
            <mxPoint x="220" y="290" as="targetPoint" />
            <Array as="points" />
          </mxGeometry>
        </mxCell>
        <mxCell id="G9iVOmePoApAyDge4jj9-239" value="&lt;font style=&quot;font-size: 8px;&quot;&gt;0000&lt;/font&gt;" style="text;html=1;strokeColor=none;fillColor=none;align=center;verticalAlign=middle;whiteSpace=wrap;rounded=0;" vertex="1" parent="1">
          <mxGeometry x="90" y="290" width="40" height="20" as="geometry" />
        </mxCell>
        <mxCell id="G9iVOmePoApAyDge4jj9-240" value="&lt;font style=&quot;font-size: 8px;&quot;&gt;0101&lt;/font&gt;" style="text;html=1;strokeColor=none;fillColor=none;align=center;verticalAlign=middle;whiteSpace=wrap;rounded=0;" vertex="1" parent="1">
          <mxGeometry x="80" y="370" width="40" height="20" as="geometry" />
        </mxCell>
        <mxCell id="G9iVOmePoApAyDge4jj9-241" value="&lt;font style=&quot;font-size: 8px;&quot;&gt;0000&lt;/font&gt;" style="text;html=1;strokeColor=none;fillColor=none;align=center;verticalAlign=middle;whiteSpace=wrap;rounded=0;" vertex="1" parent="1">
          <mxGeometry x="80" y="395" width="40" height="10" as="geometry" />
        </mxCell>
        <mxCell id="G9iVOmePoApAyDge4jj9-242" value="&lt;font style=&quot;font-size: 8px;&quot;&gt;0000&lt;/font&gt;" style="text;html=1;strokeColor=none;fillColor=none;align=center;verticalAlign=middle;whiteSpace=wrap;rounded=0;" vertex="1" parent="1">
          <mxGeometry x="170" y="385" width="40" height="10" as="geometry" />
        </mxCell>
        <mxCell id="G9iVOmePoApAyDge4jj9-243" value="&lt;font style=&quot;font-size: 8px;&quot;&gt;1111&lt;/font&gt;" style="text;html=1;strokeColor=none;fillColor=none;align=center;verticalAlign=middle;whiteSpace=wrap;rounded=0;" vertex="1" parent="1">
          <mxGeometry x="280" y="425" width="40" height="10" as="geometry" />
        </mxCell>
        <mxCell id="G9iVOmePoApAyDge4jj9-246" value="&lt;font style=&quot;font-size: 8px;&quot;&gt;0011&lt;/font&gt;" style="text;html=1;strokeColor=none;fillColor=none;align=center;verticalAlign=middle;whiteSpace=wrap;rounded=0;" vertex="1" parent="1">
          <mxGeometry x="150" y="175" width="40" height="10" as="geometry" />
        </mxCell>
        <mxCell id="G9iVOmePoApAyDge4jj9-249" value="&lt;font style=&quot;font-size: 8px;&quot;&gt;1100&lt;/font&gt;" style="text;html=1;strokeColor=none;fillColor=none;align=center;verticalAlign=middle;whiteSpace=wrap;rounded=0;" vertex="1" parent="1">
          <mxGeometry x="510" y="235" width="40" height="10" as="geometry" />
        </mxCell>
        <mxCell id="G9iVOmePoApAyDge4jj9-257" value="" style="group" vertex="1" connectable="0" parent="1">
          <mxGeometry x="250" y="240" width="40" height="60" as="geometry" />
        </mxCell>
        <mxCell id="G9iVOmePoApAyDge4jj9-258" value="&lt;b&gt;&lt;font style=&quot;font-size: 14px;&quot;&gt;&lt;br&gt;&lt;br&gt;&lt;/font&gt;&lt;/b&gt;" style="rounded=0;whiteSpace=wrap;html=1;" vertex="1" parent="G9iVOmePoApAyDge4jj9-257">
          <mxGeometry y="10" width="30" height="50" as="geometry" />
        </mxCell>
        <mxCell id="G9iVOmePoApAyDge4jj9-259" value="&lt;font style=&quot;font-size: 9px;&quot;&gt;&amp;amp;&lt;/font&gt;" style="text;html=1;strokeColor=none;fillColor=none;align=center;verticalAlign=middle;whiteSpace=wrap;rounded=0;" vertex="1" parent="G9iVOmePoApAyDge4jj9-257">
          <mxGeometry width="40" height="30" as="geometry" />
        </mxCell>
        <mxCell id="G9iVOmePoApAyDge4jj9-261" value="" style="endArrow=none;html=1;rounded=0;entryX=0;entryY=0.75;entryDx=0;entryDy=0;" edge="1" parent="G9iVOmePoApAyDge4jj9-257" target="G9iVOmePoApAyDge4jj9-259">
          <mxGeometry width="50" height="50" relative="1" as="geometry">
            <mxPoint x="-30" y="23" as="sourcePoint" />
            <mxPoint y="15" as="targetPoint" />
            <Array as="points" />
          </mxGeometry>
        </mxCell>
        <mxCell id="G9iVOmePoApAyDge4jj9-263" value="" style="group" vertex="1" connectable="0" parent="1">
          <mxGeometry x="310" y="240" width="40" height="60" as="geometry" />
        </mxCell>
        <mxCell id="G9iVOmePoApAyDge4jj9-264" value="&lt;b&gt;&lt;font style=&quot;font-size: 14px;&quot;&gt;&lt;br&gt;&lt;br&gt;&lt;/font&gt;&lt;/b&gt;" style="rounded=0;whiteSpace=wrap;html=1;" vertex="1" parent="G9iVOmePoApAyDge4jj9-263">
          <mxGeometry y="10" width="30" height="50" as="geometry" />
        </mxCell>
        <mxCell id="G9iVOmePoApAyDge4jj9-265" value="&lt;font style=&quot;font-size: 9px;&quot;&gt;1&lt;/font&gt;" style="text;html=1;strokeColor=none;fillColor=none;align=center;verticalAlign=middle;whiteSpace=wrap;rounded=0;" vertex="1" parent="G9iVOmePoApAyDge4jj9-263">
          <mxGeometry width="40" height="30" as="geometry" />
        </mxCell>
        <mxCell id="nc66vM_Gmf0xlW7SZHAF-5" value="&lt;font style=&quot;font-size: 8px;&quot;&gt;0011&lt;/font&gt;" style="text;html=1;strokeColor=none;fillColor=none;align=center;verticalAlign=middle;whiteSpace=wrap;rounded=0;" vertex="1" parent="G9iVOmePoApAyDge4jj9-263">
          <mxGeometry x="-40" y="30" width="40" height="10" as="geometry" />
        </mxCell>
        <mxCell id="G9iVOmePoApAyDge4jj9-267" value="" style="endArrow=none;html=1;rounded=0;entryX=0;entryY=0.75;entryDx=0;entryDy=0;" edge="1" parent="1" target="G9iVOmePoApAyDge4jj9-180">
          <mxGeometry width="50" height="50" relative="1" as="geometry">
            <mxPoint x="340" y="293" as="sourcePoint" />
            <mxPoint x="320" y="298" as="targetPoint" />
            <Array as="points" />
          </mxGeometry>
        </mxCell>
        <mxCell id="G9iVOmePoApAyDge4jj9-268" value="" style="group" vertex="1" connectable="0" parent="1">
          <mxGeometry x="430" y="270" width="40" height="60" as="geometry" />
        </mxCell>
        <mxCell id="G9iVOmePoApAyDge4jj9-269" value="&lt;b&gt;&lt;font style=&quot;font-size: 14px;&quot;&gt;&lt;br&gt;&lt;br&gt;&lt;/font&gt;&lt;/b&gt;" style="rounded=0;whiteSpace=wrap;html=1;" vertex="1" parent="G9iVOmePoApAyDge4jj9-268">
          <mxGeometry y="10" width="30" height="50" as="geometry" />
        </mxCell>
        <mxCell id="G9iVOmePoApAyDge4jj9-270" value="&lt;font style=&quot;font-size: 9px;&quot;&gt;1&lt;/font&gt;" style="text;html=1;strokeColor=none;fillColor=none;align=center;verticalAlign=middle;whiteSpace=wrap;rounded=0;" vertex="1" parent="G9iVOmePoApAyDge4jj9-268">
          <mxGeometry width="40" height="30" as="geometry" />
        </mxCell>
        <mxCell id="G9iVOmePoApAyDge4jj9-271" value="" style="endArrow=none;html=1;rounded=0;entryX=0;entryY=0.5;entryDx=0;entryDy=0;exitX=1;exitY=0.5;exitDx=0;exitDy=0;" edge="1" parent="1" source="G9iVOmePoApAyDge4jj9-179" target="G9iVOmePoApAyDge4jj9-269">
          <mxGeometry width="50" height="50" relative="1" as="geometry">
            <mxPoint x="350" y="303" as="sourcePoint" />
            <mxPoint x="380" y="303" as="targetPoint" />
            <Array as="points" />
          </mxGeometry>
        </mxCell>
        <mxCell id="G9iVOmePoApAyDge4jj9-273" value="" style="group" vertex="1" connectable="0" parent="1">
          <mxGeometry x="200" y="150" width="40" height="60" as="geometry" />
        </mxCell>
        <mxCell id="G9iVOmePoApAyDge4jj9-274" value="&lt;b&gt;&lt;font style=&quot;font-size: 14px;&quot;&gt;&lt;br&gt;&lt;br&gt;&lt;/font&gt;&lt;/b&gt;" style="rounded=0;whiteSpace=wrap;html=1;" vertex="1" parent="G9iVOmePoApAyDge4jj9-273">
          <mxGeometry y="10" width="30" height="50" as="geometry" />
        </mxCell>
        <mxCell id="G9iVOmePoApAyDge4jj9-275" value="&lt;font style=&quot;font-size: 9px;&quot;&gt;1&lt;/font&gt;" style="text;html=1;strokeColor=none;fillColor=none;align=center;verticalAlign=middle;whiteSpace=wrap;rounded=0;" vertex="1" parent="G9iVOmePoApAyDge4jj9-273">
          <mxGeometry width="40" height="30" as="geometry" />
        </mxCell>
        <mxCell id="G9iVOmePoApAyDge4jj9-276" value="" style="endArrow=none;html=1;rounded=0;" edge="1" parent="1">
          <mxGeometry width="50" height="50" relative="1" as="geometry">
            <mxPoint x="460" y="309" as="sourcePoint" />
            <mxPoint x="490" y="252" as="targetPoint" />
            <Array as="points">
              <mxPoint x="480" y="308.5" />
              <mxPoint x="480" y="251.5" />
            </Array>
          </mxGeometry>
        </mxCell>
        <mxCell id="G9iVOmePoApAyDge4jj9-277" value="" style="group" vertex="1" connectable="0" parent="1">
          <mxGeometry x="500" y="375" width="40" height="60" as="geometry" />
        </mxCell>
        <mxCell id="G9iVOmePoApAyDge4jj9-278" value="&lt;b&gt;&lt;font style=&quot;font-size: 14px;&quot;&gt;&lt;br&gt;&lt;br&gt;&lt;/font&gt;&lt;/b&gt;" style="rounded=0;whiteSpace=wrap;html=1;" vertex="1" parent="G9iVOmePoApAyDge4jj9-277">
          <mxGeometry y="10" width="30" height="50" as="geometry" />
        </mxCell>
        <mxCell id="G9iVOmePoApAyDge4jj9-279" value="&lt;font style=&quot;font-size: 9px;&quot;&gt;1&lt;/font&gt;" style="text;html=1;strokeColor=none;fillColor=none;align=center;verticalAlign=middle;whiteSpace=wrap;rounded=0;" vertex="1" parent="G9iVOmePoApAyDge4jj9-277">
          <mxGeometry width="40" height="30" as="geometry" />
        </mxCell>
        <mxCell id="G9iVOmePoApAyDge4jj9-280" value="" style="endArrow=none;html=1;rounded=0;entryX=0;entryY=0.5;entryDx=0;entryDy=0;" edge="1" parent="1" target="G9iVOmePoApAyDge4jj9-278">
          <mxGeometry width="50" height="50" relative="1" as="geometry">
            <mxPoint x="460" y="410" as="sourcePoint" />
            <mxPoint x="380" y="303" as="targetPoint" />
            <Array as="points" />
          </mxGeometry>
        </mxCell>
        <mxCell id="G9iVOmePoApAyDge4jj9-169" value="" style="group" vertex="1" connectable="0" parent="1">
          <mxGeometry x="707" y="330" width="40" height="60" as="geometry" />
        </mxCell>
        <mxCell id="G9iVOmePoApAyDge4jj9-170" value="&lt;b&gt;&lt;font style=&quot;font-size: 14px;&quot;&gt;&lt;br&gt;&lt;br&gt;&lt;/font&gt;&lt;/b&gt;" style="rounded=0;whiteSpace=wrap;html=1;" vertex="1" parent="G9iVOmePoApAyDge4jj9-169">
          <mxGeometry y="10" width="30" height="50" as="geometry" />
        </mxCell>
        <mxCell id="G9iVOmePoApAyDge4jj9-171" value="&lt;font style=&quot;font-size: 9px;&quot;&gt;&amp;amp;&lt;/font&gt;" style="text;html=1;strokeColor=none;fillColor=none;align=center;verticalAlign=middle;whiteSpace=wrap;rounded=0;" vertex="1" parent="G9iVOmePoApAyDge4jj9-169">
          <mxGeometry width="40" height="30" as="geometry" />
        </mxCell>
        <mxCell id="G9iVOmePoApAyDge4jj9-282" value="" style="group" vertex="1" connectable="0" parent="1">
          <mxGeometry x="650" y="290" width="40" height="60" as="geometry" />
        </mxCell>
        <mxCell id="G9iVOmePoApAyDge4jj9-283" value="&lt;b&gt;&lt;font style=&quot;font-size: 14px;&quot;&gt;&lt;br&gt;&lt;br&gt;&lt;/font&gt;&lt;/b&gt;" style="rounded=0;whiteSpace=wrap;html=1;" vertex="1" parent="G9iVOmePoApAyDge4jj9-282">
          <mxGeometry y="10" width="30" height="50" as="geometry" />
        </mxCell>
        <mxCell id="G9iVOmePoApAyDge4jj9-284" value="&lt;font style=&quot;font-size: 9px;&quot;&gt;1&lt;/font&gt;" style="text;html=1;strokeColor=none;fillColor=none;align=center;verticalAlign=middle;whiteSpace=wrap;rounded=0;" vertex="1" parent="G9iVOmePoApAyDge4jj9-282">
          <mxGeometry width="40" height="30" as="geometry" />
        </mxCell>
        <mxCell id="G9iVOmePoApAyDge4jj9-250" value="&lt;font style=&quot;font-size: 8px;&quot;&gt;0000&lt;/font&gt;" style="text;html=1;strokeColor=none;fillColor=none;align=center;verticalAlign=middle;whiteSpace=wrap;rounded=0;" vertex="1" parent="G9iVOmePoApAyDge4jj9-282">
          <mxGeometry x="-30" y="20" width="40" height="10" as="geometry" />
        </mxCell>
        <mxCell id="G9iVOmePoApAyDge4jj9-285" value="" style="group" vertex="1" connectable="0" parent="1">
          <mxGeometry x="767" y="330" width="40" height="60" as="geometry" />
        </mxCell>
        <mxCell id="G9iVOmePoApAyDge4jj9-286" value="&lt;b&gt;&lt;font style=&quot;font-size: 14px;&quot;&gt;&lt;br&gt;&lt;br&gt;&lt;/font&gt;&lt;/b&gt;" style="rounded=0;whiteSpace=wrap;html=1;" vertex="1" parent="G9iVOmePoApAyDge4jj9-285">
          <mxGeometry y="10" width="30" height="50" as="geometry" />
        </mxCell>
        <mxCell id="G9iVOmePoApAyDge4jj9-287" value="&lt;font style=&quot;font-size: 9px;&quot;&gt;1&lt;/font&gt;" style="text;html=1;strokeColor=none;fillColor=none;align=center;verticalAlign=middle;whiteSpace=wrap;rounded=0;" vertex="1" parent="G9iVOmePoApAyDge4jj9-285">
          <mxGeometry width="40" height="30" as="geometry" />
        </mxCell>
        <mxCell id="G9iVOmePoApAyDge4jj9-288" value="" style="endArrow=none;html=1;rounded=0;entryX=0;entryY=0.5;entryDx=0;entryDy=0;exitX=1;exitY=0.5;exitDx=0;exitDy=0;" edge="1" parent="1" source="G9iVOmePoApAyDge4jj9-170" target="G9iVOmePoApAyDge4jj9-286">
          <mxGeometry width="50" height="50" relative="1" as="geometry">
            <mxPoint x="737" y="370" as="sourcePoint" />
            <mxPoint x="787" y="330" as="targetPoint" />
            <Array as="points" />
          </mxGeometry>
        </mxCell>
        <mxCell id="G9iVOmePoApAyDge4jj9-289" value="" style="endArrow=none;html=1;rounded=0;exitX=1;exitY=0.5;exitDx=0;exitDy=0;" edge="1" parent="1" source="G9iVOmePoApAyDge4jj9-286">
          <mxGeometry width="50" height="50" relative="1" as="geometry">
            <mxPoint x="804" y="375" as="sourcePoint" />
            <mxPoint x="817" y="365" as="targetPoint" />
            <Array as="points" />
          </mxGeometry>
        </mxCell>
        <mxCell id="nc66vM_Gmf0xlW7SZHAF-1" value="&lt;font style=&quot;font-size: 8px;&quot;&gt;1100&lt;/font&gt;" style="text;html=1;strokeColor=none;fillColor=none;align=center;verticalAlign=middle;whiteSpace=wrap;rounded=0;" vertex="1" parent="1">
          <mxGeometry x="230" y="175" width="40" height="10" as="geometry" />
        </mxCell>
        <mxCell id="nc66vM_Gmf0xlW7SZHAF-2" value="&lt;font style=&quot;font-size: 8px;&quot;&gt;0000&lt;/font&gt;" style="text;html=1;strokeColor=none;fillColor=none;align=center;verticalAlign=middle;whiteSpace=wrap;rounded=0;" vertex="1" parent="1">
          <mxGeometry x="150" y="245" width="40" height="10" as="geometry" />
        </mxCell>
        <mxCell id="nc66vM_Gmf0xlW7SZHAF-3" value="&lt;font style=&quot;font-size: 8px;&quot;&gt;1111&lt;/font&gt;" style="text;html=1;strokeColor=none;fillColor=none;align=center;verticalAlign=middle;whiteSpace=wrap;rounded=0;" vertex="1" parent="1">
          <mxGeometry x="210" y="245" width="40" height="10" as="geometry" />
        </mxCell>
        <mxCell id="nc66vM_Gmf0xlW7SZHAF-7" value="&lt;font style=&quot;font-size: 8px;&quot;&gt;0000&lt;/font&gt;" style="text;html=1;strokeColor=none;fillColor=none;align=center;verticalAlign=middle;whiteSpace=wrap;rounded=0;" vertex="1" parent="1">
          <mxGeometry x="390" y="285" width="40" height="10" as="geometry" />
        </mxCell>
        <mxCell id="nc66vM_Gmf0xlW7SZHAF-9" value="&lt;font style=&quot;font-size: 8px;&quot;&gt;1111&lt;/font&gt;" style="text;html=1;strokeColor=none;fillColor=none;align=center;verticalAlign=middle;whiteSpace=wrap;rounded=0;" vertex="1" parent="1">
          <mxGeometry x="450" y="290" width="40" height="10" as="geometry" />
        </mxCell>
        <mxCell id="nc66vM_Gmf0xlW7SZHAF-11" value="&lt;font style=&quot;font-size: 8px;&quot;&gt;1100&lt;/font&gt;" style="text;html=1;strokeColor=none;fillColor=none;align=center;verticalAlign=middle;whiteSpace=wrap;rounded=0;" vertex="1" parent="1">
          <mxGeometry x="530" y="405" width="40" height="10" as="geometry" />
        </mxCell>
        <mxCell id="nc66vM_Gmf0xlW7SZHAF-13" value="&lt;font style=&quot;font-size: 8px;&quot;&gt;0011&lt;/font&gt;" style="text;html=1;strokeColor=none;fillColor=none;align=center;verticalAlign=middle;whiteSpace=wrap;rounded=0;" vertex="1" parent="1">
          <mxGeometry x="460" y="395" width="40" height="10" as="geometry" />
        </mxCell>
        <mxCell id="nc66vM_Gmf0xlW7SZHAF-14" value="&lt;font style=&quot;font-size: 8px;&quot;&gt;1111&lt;/font&gt;" style="text;html=1;strokeColor=none;fillColor=none;align=center;verticalAlign=middle;whiteSpace=wrap;rounded=0;" vertex="1" parent="1">
          <mxGeometry x="677" y="310" width="40" height="10" as="geometry" />
        </mxCell>
        <mxCell id="nc66vM_Gmf0xlW7SZHAF-15" value="&lt;font style=&quot;font-size: 8px;&quot;&gt;1100&lt;/font&gt;" style="text;html=1;strokeColor=none;fillColor=none;align=center;verticalAlign=middle;whiteSpace=wrap;rounded=0;" vertex="1" parent="1">
          <mxGeometry x="727" y="355" width="40" height="10" as="geometry" />
        </mxCell>
        <mxCell id="nc66vM_Gmf0xlW7SZHAF-16" value="&lt;font style=&quot;font-size: 8px;&quot;&gt;0011&lt;/font&gt;" style="text;html=1;strokeColor=none;fillColor=none;align=center;verticalAlign=middle;whiteSpace=wrap;rounded=0;" vertex="1" parent="1">
          <mxGeometry x="787" y="350" width="40" height="10" as="geometry" />
        </mxCell>
        <mxCell id="G9iVOmePoApAyDge4jj9-195" value="" style="group" vertex="1" connectable="0" parent="1">
          <mxGeometry x="490" y="210" width="40" height="60" as="geometry" />
        </mxCell>
        <mxCell id="G9iVOmePoApAyDge4jj9-196" value="&lt;b&gt;&lt;font style=&quot;font-size: 14px;&quot;&gt;&lt;br&gt;&lt;br&gt;&lt;/font&gt;&lt;/b&gt;" style="rounded=0;whiteSpace=wrap;html=1;" vertex="1" parent="G9iVOmePoApAyDge4jj9-195">
          <mxGeometry y="10" width="30" height="50" as="geometry" />
        </mxCell>
        <mxCell id="G9iVOmePoApAyDge4jj9-197" value="&lt;font style=&quot;font-size: 9px;&quot;&gt;&amp;amp;&lt;/font&gt;" style="text;html=1;strokeColor=none;fillColor=none;align=center;verticalAlign=middle;whiteSpace=wrap;rounded=0;" vertex="1" parent="G9iVOmePoApAyDge4jj9-195">
          <mxGeometry width="40" height="30" as="geometry" />
        </mxCell>
        <mxCell id="nc66vM_Gmf0xlW7SZHAF-20" value="" style="group" vertex="1" connectable="0" parent="1">
          <mxGeometry x="540" y="210" width="40" height="60" as="geometry" />
        </mxCell>
        <mxCell id="nc66vM_Gmf0xlW7SZHAF-21" value="&lt;b&gt;&lt;font style=&quot;font-size: 14px;&quot;&gt;&lt;br&gt;&lt;br&gt;&lt;/font&gt;&lt;/b&gt;" style="rounded=0;whiteSpace=wrap;html=1;" vertex="1" parent="nc66vM_Gmf0xlW7SZHAF-20">
          <mxGeometry y="10" width="30" height="50" as="geometry" />
        </mxCell>
        <mxCell id="nc66vM_Gmf0xlW7SZHAF-22" value="&lt;font style=&quot;font-size: 9px;&quot;&gt;1&lt;/font&gt;" style="text;html=1;strokeColor=none;fillColor=none;align=center;verticalAlign=middle;whiteSpace=wrap;rounded=0;" vertex="1" parent="nc66vM_Gmf0xlW7SZHAF-20">
          <mxGeometry width="40" height="30" as="geometry" />
        </mxCell>
      </root>
    </mxGraphModel>
  </diagram>
  <diagram id="__7jVAWextJrKU1Yh9q8" name="МДНФуниверс">
    <mxGraphModel dx="708" dy="300" grid="1" gridSize="10" guides="1" tooltips="1" connect="1" arrows="1" fold="1" page="1" pageScale="1" pageWidth="827" pageHeight="1169" math="0" shadow="0">
      <root>
        <mxCell id="0" />
        <mxCell id="1" parent="0" />
        <mxCell id="1FSXuBfYxupskbqtTORO-4" value="" style="group" vertex="1" connectable="0" parent="1">
          <mxGeometry x="200" y="370" width="40" height="60" as="geometry" />
        </mxCell>
        <mxCell id="1FSXuBfYxupskbqtTORO-5" value="&lt;b&gt;&lt;font style=&quot;font-size: 14px;&quot;&gt;&lt;br&gt;&lt;br&gt;&lt;/font&gt;&lt;/b&gt;" style="rounded=0;whiteSpace=wrap;html=1;" vertex="1" parent="1FSXuBfYxupskbqtTORO-4">
          <mxGeometry y="10" width="30" height="50" as="geometry" />
        </mxCell>
        <mxCell id="1FSXuBfYxupskbqtTORO-6" value="&lt;font style=&quot;font-size: 9px;&quot;&gt;&amp;amp;&lt;/font&gt;" style="text;html=1;strokeColor=none;fillColor=none;align=center;verticalAlign=middle;whiteSpace=wrap;rounded=0;" vertex="1" parent="1FSXuBfYxupskbqtTORO-4">
          <mxGeometry width="40" height="30" as="geometry" />
        </mxCell>
        <mxCell id="Cqf3wuIxJ-Sm2hY3OM8W-26" value="" style="endArrow=none;html=1;rounded=0;" edge="1" parent="1FSXuBfYxupskbqtTORO-4">
          <mxGeometry width="50" height="50" relative="1" as="geometry">
            <mxPoint x="-20" y="28.889999999999986" as="sourcePoint" />
            <mxPoint y="29" as="targetPoint" />
            <Array as="points" />
          </mxGeometry>
        </mxCell>
        <mxCell id="1FSXuBfYxupskbqtTORO-7" value="" style="group" vertex="1" connectable="0" parent="1">
          <mxGeometry x="280" y="230" width="40" height="60" as="geometry" />
        </mxCell>
        <mxCell id="1FSXuBfYxupskbqtTORO-8" value="&lt;b&gt;&lt;font style=&quot;font-size: 14px;&quot;&gt;&lt;br&gt;&lt;br&gt;&lt;/font&gt;&lt;/b&gt;" style="rounded=0;whiteSpace=wrap;html=1;" vertex="1" parent="1FSXuBfYxupskbqtTORO-7">
          <mxGeometry y="10" width="30" height="50" as="geometry" />
        </mxCell>
        <mxCell id="1FSXuBfYxupskbqtTORO-9" value="&lt;font style=&quot;font-size: 9px;&quot;&gt;&amp;amp;&lt;/font&gt;" style="text;html=1;strokeColor=none;fillColor=none;align=center;verticalAlign=middle;whiteSpace=wrap;rounded=0;" vertex="1" parent="1FSXuBfYxupskbqtTORO-7">
          <mxGeometry width="40" height="30" as="geometry" />
        </mxCell>
        <mxCell id="1FSXuBfYxupskbqtTORO-11" value="" style="group" vertex="1" connectable="0" parent="1">
          <mxGeometry x="130" y="150" width="40" height="60" as="geometry" />
        </mxCell>
        <mxCell id="1FSXuBfYxupskbqtTORO-12" value="&lt;b&gt;&lt;font style=&quot;font-size: 14px;&quot;&gt;&lt;br&gt;&lt;br&gt;&lt;/font&gt;&lt;/b&gt;" style="rounded=0;whiteSpace=wrap;html=1;" vertex="1" parent="1FSXuBfYxupskbqtTORO-11">
          <mxGeometry y="10" width="30" height="50" as="geometry" />
        </mxCell>
        <mxCell id="1FSXuBfYxupskbqtTORO-13" value="&lt;font style=&quot;font-size: 9px;&quot;&gt;&amp;amp;&lt;/font&gt;" style="text;html=1;strokeColor=none;fillColor=none;align=center;verticalAlign=middle;whiteSpace=wrap;rounded=0;" vertex="1" parent="1FSXuBfYxupskbqtTORO-11">
          <mxGeometry width="40" height="30" as="geometry" />
        </mxCell>
        <mxCell id="1FSXuBfYxupskbqtTORO-14" value="&lt;font style=&quot;font-size: 8px;&quot;&gt;1100&lt;/font&gt;" style="text;html=1;strokeColor=none;fillColor=none;align=center;verticalAlign=middle;whiteSpace=wrap;rounded=0;" vertex="1" parent="1FSXuBfYxupskbqtTORO-11">
          <mxGeometry x="-40" y="10" width="40" height="20" as="geometry" />
        </mxCell>
        <mxCell id="1FSXuBfYxupskbqtTORO-15" value="" style="group" vertex="1" connectable="0" parent="1">
          <mxGeometry x="120" y="310" width="40" height="60" as="geometry" />
        </mxCell>
        <mxCell id="1FSXuBfYxupskbqtTORO-16" value="&lt;b&gt;&lt;font style=&quot;font-size: 14px;&quot;&gt;&lt;br&gt;&lt;br&gt;&lt;/font&gt;&lt;/b&gt;" style="rounded=0;whiteSpace=wrap;html=1;" vertex="1" parent="1FSXuBfYxupskbqtTORO-15">
          <mxGeometry x="10" y="60" width="30" height="50" as="geometry" />
        </mxCell>
        <mxCell id="1FSXuBfYxupskbqtTORO-17" value="&lt;font style=&quot;font-size: 8px;&quot;&gt;0011&lt;/font&gt;" style="text;html=1;strokeColor=none;fillColor=none;align=center;verticalAlign=middle;whiteSpace=wrap;rounded=0;" vertex="1" parent="1FSXuBfYxupskbqtTORO-15">
          <mxGeometry x="-40" y="30" width="40" height="20" as="geometry" />
        </mxCell>
        <mxCell id="1FSXuBfYxupskbqtTORO-18" value="x&lt;sub&gt;4&lt;/sub&gt;" style="text;html=1;strokeColor=none;fillColor=none;align=center;verticalAlign=middle;whiteSpace=wrap;rounded=0;" vertex="1" parent="1FSXuBfYxupskbqtTORO-15">
          <mxGeometry x="-70" y="30" width="60" height="30" as="geometry" />
        </mxCell>
        <mxCell id="1FSXuBfYxupskbqtTORO-152" value="" style="endArrow=none;html=1;rounded=0;" edge="1" parent="1FSXuBfYxupskbqtTORO-15">
          <mxGeometry width="50" height="50" relative="1" as="geometry">
            <mxPoint x="-20" y="10" as="sourcePoint" />
            <mxPoint x="30" y="10" as="targetPoint" />
            <Array as="points" />
          </mxGeometry>
        </mxCell>
        <mxCell id="MDVLM1xXaB7gYChZdj_w-6" value="&lt;font style=&quot;font-size: 8px;&quot;&gt;1111&lt;/font&gt;" style="text;html=1;strokeColor=none;fillColor=none;align=center;verticalAlign=middle;whiteSpace=wrap;rounded=0;" vertex="1" parent="1FSXuBfYxupskbqtTORO-15">
          <mxGeometry x="-30" width="40" height="10" as="geometry" />
        </mxCell>
        <mxCell id="1FSXuBfYxupskbqtTORO-19" value="" style="group" vertex="1" connectable="0" parent="1">
          <mxGeometry x="210" y="200" width="70" height="80" as="geometry" />
        </mxCell>
        <mxCell id="1FSXuBfYxupskbqtTORO-20" value="&lt;b&gt;&lt;font style=&quot;font-size: 14px;&quot;&gt;&lt;br&gt;&lt;br&gt;&lt;/font&gt;&lt;/b&gt;" style="rounded=0;whiteSpace=wrap;html=1;" vertex="1" parent="1FSXuBfYxupskbqtTORO-19">
          <mxGeometry y="10" width="30" height="50" as="geometry" />
        </mxCell>
        <mxCell id="1FSXuBfYxupskbqtTORO-21" value="&lt;font style=&quot;font-size: 9px;&quot;&gt;&amp;amp;&lt;/font&gt;" style="text;html=1;strokeColor=none;fillColor=none;align=center;verticalAlign=middle;whiteSpace=wrap;rounded=0;" vertex="1" parent="1FSXuBfYxupskbqtTORO-19">
          <mxGeometry width="40" height="30" as="geometry" />
        </mxCell>
        <mxCell id="1FSXuBfYxupskbqtTORO-22" value="" style="endArrow=none;html=1;rounded=0;" edge="1" parent="1FSXuBfYxupskbqtTORO-19">
          <mxGeometry width="50" height="50" relative="1" as="geometry">
            <mxPoint x="30" y="50" as="sourcePoint" />
            <mxPoint x="70" y="50" as="targetPoint" />
            <Array as="points" />
          </mxGeometry>
        </mxCell>
        <mxCell id="MDVLM1xXaB7gYChZdj_w-9" value="&lt;font style=&quot;font-size: 8px;&quot;&gt;1100&lt;/font&gt;" style="text;html=1;strokeColor=none;fillColor=none;align=center;verticalAlign=middle;whiteSpace=wrap;rounded=0;" vertex="1" parent="1FSXuBfYxupskbqtTORO-19">
          <mxGeometry x="30" y="30" width="40" height="20" as="geometry" />
        </mxCell>
        <mxCell id="1FSXuBfYxupskbqtTORO-23" value="&lt;font style=&quot;font-size: 9px;&quot;&gt;&amp;amp;&lt;/font&gt;" style="text;html=1;strokeColor=none;fillColor=none;align=center;verticalAlign=middle;whiteSpace=wrap;rounded=0;" vertex="1" parent="1">
          <mxGeometry x="130" y="360" width="40" height="30" as="geometry" />
        </mxCell>
        <mxCell id="1FSXuBfYxupskbqtTORO-24" value="" style="endArrow=none;html=1;rounded=0;entryX=0;entryY=1;entryDx=0;entryDy=0;" edge="1" parent="1" target="1FSXuBfYxupskbqtTORO-13">
          <mxGeometry width="50" height="50" relative="1" as="geometry">
            <mxPoint x="100" y="180" as="sourcePoint" />
            <mxPoint x="100" y="150" as="targetPoint" />
            <Array as="points" />
          </mxGeometry>
        </mxCell>
        <mxCell id="1FSXuBfYxupskbqtTORO-25" value="" style="endArrow=none;html=1;rounded=0;" edge="1" parent="1">
          <mxGeometry width="50" height="50" relative="1" as="geometry">
            <mxPoint x="50" y="250" as="sourcePoint" />
            <mxPoint x="130" y="200" as="targetPoint" />
            <Array as="points">
              <mxPoint x="50" y="200" />
            </Array>
          </mxGeometry>
        </mxCell>
        <mxCell id="1FSXuBfYxupskbqtTORO-27" value="" style="endArrow=none;html=1;rounded=0;exitX=1;exitY=0.5;exitDx=0;exitDy=0;" edge="1" parent="1">
          <mxGeometry width="50" height="50" relative="1" as="geometry">
            <mxPoint x="50" y="285" as="sourcePoint" />
            <mxPoint x="210" y="250" as="targetPoint" />
            <Array as="points">
              <mxPoint x="50" y="250" />
            </Array>
          </mxGeometry>
        </mxCell>
        <mxCell id="1FSXuBfYxupskbqtTORO-28" value="" style="endArrow=none;html=1;rounded=0;startArrow=none;" edge="1" parent="1">
          <mxGeometry width="50" height="50" relative="1" as="geometry">
            <mxPoint x="50" y="300" as="sourcePoint" />
            <mxPoint x="150" y="300" as="targetPoint" />
            <Array as="points" />
          </mxGeometry>
        </mxCell>
        <mxCell id="1FSXuBfYxupskbqtTORO-30" value="" style="endArrow=none;html=1;rounded=0;entryX=0;entryY=0.6;entryDx=0;entryDy=0;entryPerimeter=0;exitX=0;exitY=0.75;exitDx=0;exitDy=0;" edge="1" parent="1" target="1FSXuBfYxupskbqtTORO-8" source="1FSXuBfYxupskbqtTORO-50">
          <mxGeometry width="50" height="50" relative="1" as="geometry">
            <mxPoint x="90" y="310" as="sourcePoint" />
            <mxPoint x="280" y="310" as="targetPoint" />
            <Array as="points">
              <mxPoint x="210" y="270" />
            </Array>
          </mxGeometry>
        </mxCell>
        <mxCell id="1FSXuBfYxupskbqtTORO-31" value="" style="endArrow=none;html=1;rounded=0;" edge="1" parent="1">
          <mxGeometry width="50" height="50" relative="1" as="geometry">
            <mxPoint x="160" y="400" as="sourcePoint" />
            <mxPoint x="220" y="440" as="targetPoint" />
            <Array as="points">
              <mxPoint x="180" y="400" />
              <mxPoint x="180" y="440" />
            </Array>
          </mxGeometry>
        </mxCell>
        <mxCell id="1FSXuBfYxupskbqtTORO-32" value="" style="endArrow=none;html=1;rounded=0;" edge="1" parent="1">
          <mxGeometry width="50" height="50" relative="1" as="geometry">
            <mxPoint x="90" y="360" as="sourcePoint" />
            <mxPoint x="320" y="390" as="targetPoint" />
            <Array as="points">
              <mxPoint x="270" y="360" />
              <mxPoint x="270" y="390" />
            </Array>
          </mxGeometry>
        </mxCell>
        <mxCell id="1FSXuBfYxupskbqtTORO-33" value="" style="endArrow=none;html=1;rounded=0;exitX=1;exitY=0.5;exitDx=0;exitDy=0;" edge="1" parent="1">
          <mxGeometry width="50" height="50" relative="1" as="geometry">
            <mxPoint x="50" y="285" as="sourcePoint" />
            <mxPoint x="380" y="370" as="targetPoint" />
            <Array as="points">
              <mxPoint x="50" y="340" />
              <mxPoint x="290" y="342" />
              <mxPoint x="290" y="370" />
            </Array>
          </mxGeometry>
        </mxCell>
        <mxCell id="1FSXuBfYxupskbqtTORO-34" value="-x&lt;span style=&quot;font-size: 10px;&quot;&gt;4&lt;/span&gt;" style="text;html=1;strokeColor=none;fillColor=none;align=center;verticalAlign=middle;whiteSpace=wrap;rounded=0;" vertex="1" parent="1">
          <mxGeometry x="60" y="170" width="50" height="25" as="geometry" />
        </mxCell>
        <mxCell id="1FSXuBfYxupskbqtTORO-36" value="x&lt;sub&gt;1&lt;/sub&gt;" style="text;html=1;strokeColor=none;fillColor=none;align=center;verticalAlign=middle;whiteSpace=wrap;rounded=0;" vertex="1" parent="1">
          <mxGeometry x="65" y="250" width="40" height="30" as="geometry" />
        </mxCell>
        <mxCell id="1FSXuBfYxupskbqtTORO-37" value="x&lt;span style=&quot;font-size: 10px;&quot;&gt;5&lt;/span&gt;" style="text;html=1;strokeColor=none;fillColor=none;align=center;verticalAlign=middle;whiteSpace=wrap;rounded=0;" vertex="1" parent="1">
          <mxGeometry x="60" y="370" width="40" height="30" as="geometry" />
        </mxCell>
        <mxCell id="1FSXuBfYxupskbqtTORO-38" value="x&lt;span style=&quot;font-size: 10px;&quot;&gt;2&lt;/span&gt;" style="text;html=1;strokeColor=none;fillColor=none;align=center;verticalAlign=middle;whiteSpace=wrap;rounded=0;" vertex="1" parent="1">
          <mxGeometry x="50" y="390" width="60" height="30" as="geometry" />
        </mxCell>
        <mxCell id="1FSXuBfYxupskbqtTORO-39" value="" style="endArrow=none;html=1;rounded=0;entryX=0;entryY=1;entryDx=0;entryDy=0;" edge="1" parent="1">
          <mxGeometry width="50" height="50" relative="1" as="geometry">
            <mxPoint x="90" y="390" as="sourcePoint" />
            <mxPoint x="130" y="390" as="targetPoint" />
          </mxGeometry>
        </mxCell>
        <mxCell id="1FSXuBfYxupskbqtTORO-40" value="" style="endArrow=none;html=1;rounded=0;entryX=0;entryY=0.75;entryDx=0;entryDy=0;" edge="1" parent="1" target="1FSXuBfYxupskbqtTORO-16">
          <mxGeometry width="50" height="50" relative="1" as="geometry">
            <mxPoint x="90" y="408" as="sourcePoint" />
            <mxPoint x="140" y="400" as="targetPoint" />
          </mxGeometry>
        </mxCell>
        <mxCell id="1FSXuBfYxupskbqtTORO-41" value="" style="endArrow=none;html=1;rounded=0;" edge="1" parent="1">
          <mxGeometry width="50" height="50" relative="1" as="geometry">
            <mxPoint x="220" y="440" as="sourcePoint" />
            <mxPoint x="430" y="420" as="targetPoint" />
            <Array as="points">
              <mxPoint x="390" y="440" />
              <mxPoint x="390" y="420" />
            </Array>
          </mxGeometry>
        </mxCell>
        <mxCell id="1FSXuBfYxupskbqtTORO-42" value="" style="endArrow=none;html=1;rounded=0;" edge="1" parent="1">
          <mxGeometry width="50" height="50" relative="1" as="geometry">
            <mxPoint x="30" y="285" as="sourcePoint" />
            <mxPoint x="50" y="284.5" as="targetPoint" />
            <Array as="points" />
          </mxGeometry>
        </mxCell>
        <mxCell id="1FSXuBfYxupskbqtTORO-43" value="" style="shape=waypoint;sketch=0;fillStyle=solid;size=6;pointerEvents=1;points=[];fillColor=none;resizable=0;rotatable=0;perimeter=centerPerimeter;snapToPoint=1;" vertex="1" parent="1">
          <mxGeometry x="40" y="240" width="20" height="20" as="geometry" />
        </mxCell>
        <mxCell id="1FSXuBfYxupskbqtTORO-44" value="" style="shape=waypoint;sketch=0;fillStyle=solid;size=6;pointerEvents=1;points=[];fillColor=none;resizable=0;rotatable=0;perimeter=centerPerimeter;snapToPoint=1;" vertex="1" parent="1">
          <mxGeometry x="40" y="275" width="20" height="20" as="geometry" />
        </mxCell>
        <mxCell id="1FSXuBfYxupskbqtTORO-46" value="t" style="text;html=1;strokeColor=none;fillColor=none;align=center;verticalAlign=middle;whiteSpace=wrap;rounded=0;" vertex="1" parent="1">
          <mxGeometry x="150" y="400" width="30" height="30" as="geometry" />
        </mxCell>
        <mxCell id="1FSXuBfYxupskbqtTORO-47" value="&lt;font style=&quot;font-size: 8px;&quot;&gt;0011&lt;/font&gt;" style="text;html=1;strokeColor=none;fillColor=none;align=center;verticalAlign=middle;whiteSpace=wrap;rounded=0;" vertex="1" parent="1">
          <mxGeometry x="10" y="270" width="40" height="20" as="geometry" />
        </mxCell>
        <mxCell id="1FSXuBfYxupskbqtTORO-50" value="&lt;font style=&quot;font-size: 8px;&quot;&gt;0000&lt;/font&gt;" style="text;html=1;strokeColor=none;fillColor=none;align=center;verticalAlign=middle;whiteSpace=wrap;rounded=0;" vertex="1" parent="1">
          <mxGeometry x="90" y="255" width="40" height="20" as="geometry" />
        </mxCell>
        <mxCell id="1FSXuBfYxupskbqtTORO-51" value="&lt;font style=&quot;font-size: 8px;&quot;&gt;0101&lt;/font&gt;" style="text;html=1;strokeColor=none;fillColor=none;align=center;verticalAlign=middle;whiteSpace=wrap;rounded=0;" vertex="1" parent="1">
          <mxGeometry x="80" y="370" width="40" height="20" as="geometry" />
        </mxCell>
        <mxCell id="1FSXuBfYxupskbqtTORO-52" value="&lt;font style=&quot;font-size: 8px;&quot;&gt;0000&lt;/font&gt;" style="text;html=1;strokeColor=none;fillColor=none;align=center;verticalAlign=middle;whiteSpace=wrap;rounded=0;" vertex="1" parent="1">
          <mxGeometry x="80" y="395" width="40" height="10" as="geometry" />
        </mxCell>
        <mxCell id="1FSXuBfYxupskbqtTORO-53" value="&lt;font style=&quot;font-size: 8px;&quot;&gt;1111&lt;/font&gt;" style="text;html=1;strokeColor=none;fillColor=none;align=center;verticalAlign=middle;whiteSpace=wrap;rounded=0;" vertex="1" parent="1">
          <mxGeometry x="155" y="380" width="30" height="20" as="geometry" />
        </mxCell>
        <mxCell id="1FSXuBfYxupskbqtTORO-54" value="&lt;font style=&quot;font-size: 8px;&quot;&gt;0011&lt;/font&gt;" style="text;html=1;strokeColor=none;fillColor=none;align=center;verticalAlign=middle;whiteSpace=wrap;rounded=0;" vertex="1" parent="1">
          <mxGeometry x="380" y="295" width="40" height="10" as="geometry" />
        </mxCell>
        <mxCell id="1FSXuBfYxupskbqtTORO-55" value="&lt;font style=&quot;font-size: 8px;&quot;&gt;1111&lt;/font&gt;" style="text;html=1;strokeColor=none;fillColor=none;align=center;verticalAlign=middle;whiteSpace=wrap;rounded=0;" vertex="1" parent="1">
          <mxGeometry x="150" y="175" width="40" height="10" as="geometry" />
        </mxCell>
        <mxCell id="1FSXuBfYxupskbqtTORO-148" value="" style="endArrow=none;html=1;rounded=0;exitX=1;exitY=0.5;exitDx=0;exitDy=0;entryX=0;entryY=0.5;entryDx=0;entryDy=0;" edge="1" parent="1" source="1FSXuBfYxupskbqtTORO-12" target="1FSXuBfYxupskbqtTORO-20">
          <mxGeometry width="50" height="50" relative="1" as="geometry">
            <mxPoint x="170" y="190" as="sourcePoint" />
            <mxPoint x="280" y="260" as="targetPoint" />
            <Array as="points">
              <mxPoint x="190" y="185" />
              <mxPoint x="190" y="235" />
            </Array>
          </mxGeometry>
        </mxCell>
        <mxCell id="1FSXuBfYxupskbqtTORO-155" value="" style="group" vertex="1" connectable="0" parent="1">
          <mxGeometry x="150" y="275" width="40" height="60" as="geometry" />
        </mxCell>
        <mxCell id="1FSXuBfYxupskbqtTORO-156" value="&lt;b&gt;&lt;font style=&quot;font-size: 14px;&quot;&gt;&lt;br&gt;&lt;br&gt;&lt;/font&gt;&lt;/b&gt;" style="rounded=0;whiteSpace=wrap;html=1;" vertex="1" parent="1FSXuBfYxupskbqtTORO-155">
          <mxGeometry y="10" width="30" height="50" as="geometry" />
        </mxCell>
        <mxCell id="1FSXuBfYxupskbqtTORO-157" value="&lt;font style=&quot;font-size: 9px;&quot;&gt;&amp;amp;&lt;/font&gt;" style="text;html=1;strokeColor=none;fillColor=none;align=center;verticalAlign=middle;whiteSpace=wrap;rounded=0;" vertex="1" parent="1FSXuBfYxupskbqtTORO-155">
          <mxGeometry width="40" height="30" as="geometry" />
        </mxCell>
        <mxCell id="1FSXuBfYxupskbqtTORO-159" value="-x&lt;sub&gt;1&lt;/sub&gt;" style="text;html=1;strokeColor=none;fillColor=none;align=center;verticalAlign=middle;whiteSpace=wrap;rounded=0;" vertex="1" parent="1">
          <mxGeometry x="65" y="305" width="40" height="30" as="geometry" />
        </mxCell>
        <mxCell id="1FSXuBfYxupskbqtTORO-162" value="" style="group" vertex="1" connectable="0" parent="1">
          <mxGeometry x="360" y="260" width="40" height="60" as="geometry" />
        </mxCell>
        <mxCell id="1FSXuBfYxupskbqtTORO-163" value="&lt;b&gt;&lt;font style=&quot;font-size: 14px;&quot;&gt;&lt;br&gt;&lt;br&gt;&lt;/font&gt;&lt;/b&gt;" style="rounded=0;whiteSpace=wrap;html=1;" vertex="1" parent="1FSXuBfYxupskbqtTORO-162">
          <mxGeometry y="10" width="30" height="50" as="geometry" />
        </mxCell>
        <mxCell id="1FSXuBfYxupskbqtTORO-164" value="&lt;font style=&quot;font-size: 9px;&quot;&gt;&amp;amp;&lt;/font&gt;" style="text;html=1;strokeColor=none;fillColor=none;align=center;verticalAlign=middle;whiteSpace=wrap;rounded=0;" vertex="1" parent="1FSXuBfYxupskbqtTORO-162">
          <mxGeometry width="40" height="30" as="geometry" />
        </mxCell>
        <mxCell id="1FSXuBfYxupskbqtTORO-165" value="" style="endArrow=none;html=1;rounded=0;" edge="1" parent="1">
          <mxGeometry width="50" height="50" relative="1" as="geometry">
            <mxPoint x="310" y="280" as="sourcePoint" />
            <mxPoint x="360" y="280" as="targetPoint" />
            <Array as="points" />
          </mxGeometry>
        </mxCell>
        <mxCell id="1FSXuBfYxupskbqtTORO-166" value="" style="endArrow=none;html=1;rounded=0;exitX=0.75;exitY=1;exitDx=0;exitDy=0;" edge="1" parent="1" source="1FSXuBfYxupskbqtTORO-157">
          <mxGeometry width="50" height="50" relative="1" as="geometry">
            <mxPoint x="310" y="303.89" as="sourcePoint" />
            <mxPoint x="360" y="303.89" as="targetPoint" />
            <Array as="points" />
          </mxGeometry>
        </mxCell>
        <mxCell id="1FSXuBfYxupskbqtTORO-167" value="" style="shape=waypoint;sketch=0;fillStyle=solid;size=6;pointerEvents=1;points=[];fillColor=none;resizable=0;rotatable=0;perimeter=centerPerimeter;snapToPoint=1;" vertex="1" parent="1">
          <mxGeometry x="170" y="390" width="20" height="20" as="geometry" />
        </mxCell>
        <mxCell id="Cqf3wuIxJ-Sm2hY3OM8W-1" value="" style="endArrow=none;html=1;rounded=0;startArrow=none;" edge="1" parent="1">
          <mxGeometry width="50" height="50" relative="1" as="geometry">
            <mxPoint x="260" y="410" as="sourcePoint" />
            <mxPoint x="430" y="330" as="targetPoint" />
            <Array as="points">
              <mxPoint x="260" y="330" />
            </Array>
          </mxGeometry>
        </mxCell>
        <mxCell id="Cqf3wuIxJ-Sm2hY3OM8W-2" value="" style="group" vertex="1" connectable="0" parent="1">
          <mxGeometry x="430" y="290" width="40" height="60" as="geometry" />
        </mxCell>
        <mxCell id="Cqf3wuIxJ-Sm2hY3OM8W-3" value="&lt;b&gt;&lt;font style=&quot;font-size: 14px;&quot;&gt;&lt;br&gt;&lt;br&gt;&lt;/font&gt;&lt;/b&gt;" style="rounded=0;whiteSpace=wrap;html=1;" vertex="1" parent="Cqf3wuIxJ-Sm2hY3OM8W-2">
          <mxGeometry y="10" width="30" height="50" as="geometry" />
        </mxCell>
        <mxCell id="Cqf3wuIxJ-Sm2hY3OM8W-4" value="&lt;font style=&quot;font-size: 9px;&quot;&gt;&amp;amp;&lt;/font&gt;" style="text;html=1;strokeColor=none;fillColor=none;align=center;verticalAlign=middle;whiteSpace=wrap;rounded=0;" vertex="1" parent="Cqf3wuIxJ-Sm2hY3OM8W-2">
          <mxGeometry width="40" height="30" as="geometry" />
        </mxCell>
        <mxCell id="Cqf3wuIxJ-Sm2hY3OM8W-5" value="" style="endArrow=none;html=1;rounded=0;" edge="1" parent="1">
          <mxGeometry width="50" height="50" relative="1" as="geometry">
            <mxPoint x="389" y="310" as="sourcePoint" />
            <mxPoint x="430" y="310" as="targetPoint" />
            <Array as="points" />
          </mxGeometry>
        </mxCell>
        <mxCell id="Cqf3wuIxJ-Sm2hY3OM8W-8" value="" style="group" vertex="1" connectable="0" parent="1">
          <mxGeometry x="300" y="345" width="40" height="60" as="geometry" />
        </mxCell>
        <mxCell id="Cqf3wuIxJ-Sm2hY3OM8W-9" value="&lt;b&gt;&lt;font style=&quot;font-size: 14px;&quot;&gt;&lt;br&gt;&lt;br&gt;&lt;/font&gt;&lt;/b&gt;" style="rounded=0;whiteSpace=wrap;html=1;" vertex="1" parent="Cqf3wuIxJ-Sm2hY3OM8W-8">
          <mxGeometry y="10" width="30" height="50" as="geometry" />
        </mxCell>
        <mxCell id="Cqf3wuIxJ-Sm2hY3OM8W-10" value="&lt;font style=&quot;font-size: 9px;&quot;&gt;&amp;amp;&lt;/font&gt;" style="text;html=1;strokeColor=none;fillColor=none;align=center;verticalAlign=middle;whiteSpace=wrap;rounded=0;" vertex="1" parent="Cqf3wuIxJ-Sm2hY3OM8W-8">
          <mxGeometry width="40" height="30" as="geometry" />
        </mxCell>
        <mxCell id="Cqf3wuIxJ-Sm2hY3OM8W-11" value="" style="group" vertex="1" connectable="0" parent="1">
          <mxGeometry x="370" y="345" width="40" height="60" as="geometry" />
        </mxCell>
        <mxCell id="Cqf3wuIxJ-Sm2hY3OM8W-12" value="&lt;b&gt;&lt;font style=&quot;font-size: 14px;&quot;&gt;&lt;br&gt;&lt;br&gt;&lt;/font&gt;&lt;/b&gt;" style="rounded=0;whiteSpace=wrap;html=1;" vertex="1" parent="Cqf3wuIxJ-Sm2hY3OM8W-11">
          <mxGeometry y="10" width="30" height="50" as="geometry" />
        </mxCell>
        <mxCell id="Cqf3wuIxJ-Sm2hY3OM8W-13" value="&lt;font style=&quot;font-size: 9px;&quot;&gt;&amp;amp;&lt;/font&gt;" style="text;html=1;strokeColor=none;fillColor=none;align=center;verticalAlign=middle;whiteSpace=wrap;rounded=0;" vertex="1" parent="Cqf3wuIxJ-Sm2hY3OM8W-11">
          <mxGeometry width="40" height="30" as="geometry" />
        </mxCell>
        <mxCell id="Cqf3wuIxJ-Sm2hY3OM8W-15" value="" style="shape=waypoint;sketch=0;fillStyle=solid;size=6;pointerEvents=1;points=[];fillColor=none;resizable=0;rotatable=0;perimeter=centerPerimeter;snapToPoint=1;" vertex="1" parent="1">
          <mxGeometry x="340" y="360" width="20" height="20" as="geometry" />
        </mxCell>
        <mxCell id="Cqf3wuIxJ-Sm2hY3OM8W-16" value="" style="endArrow=none;html=1;rounded=0;" edge="1" parent="1" source="Cqf3wuIxJ-Sm2hY3OM8W-15">
          <mxGeometry width="50" height="50" relative="1" as="geometry">
            <mxPoint x="340" y="415" as="sourcePoint" />
            <mxPoint x="370" y="390" as="targetPoint" />
            <Array as="points">
              <mxPoint x="350" y="390" />
            </Array>
          </mxGeometry>
        </mxCell>
        <mxCell id="Cqf3wuIxJ-Sm2hY3OM8W-18" value="" style="group" vertex="1" connectable="0" parent="1">
          <mxGeometry x="430" y="370" width="40" height="60" as="geometry" />
        </mxCell>
        <mxCell id="Cqf3wuIxJ-Sm2hY3OM8W-19" value="&lt;b&gt;&lt;font style=&quot;font-size: 14px;&quot;&gt;&lt;br&gt;&lt;br&gt;&lt;/font&gt;&lt;/b&gt;" style="rounded=0;whiteSpace=wrap;html=1;" vertex="1" parent="Cqf3wuIxJ-Sm2hY3OM8W-18">
          <mxGeometry y="10" width="30" height="50" as="geometry" />
        </mxCell>
        <mxCell id="Cqf3wuIxJ-Sm2hY3OM8W-20" value="&lt;font style=&quot;font-size: 9px;&quot;&gt;&amp;amp;&lt;/font&gt;" style="text;html=1;strokeColor=none;fillColor=none;align=center;verticalAlign=middle;whiteSpace=wrap;rounded=0;" vertex="1" parent="Cqf3wuIxJ-Sm2hY3OM8W-18">
          <mxGeometry width="40" height="30" as="geometry" />
        </mxCell>
        <mxCell id="MDVLM1xXaB7gYChZdj_w-19" value="&lt;font style=&quot;font-size: 8px;&quot;&gt;0011&lt;/font&gt;" style="text;html=1;strokeColor=none;fillColor=none;align=center;verticalAlign=middle;whiteSpace=wrap;rounded=0;" vertex="1" parent="Cqf3wuIxJ-Sm2hY3OM8W-18">
          <mxGeometry x="-36" y="5" width="40" height="20" as="geometry" />
        </mxCell>
        <mxCell id="Cqf3wuIxJ-Sm2hY3OM8W-21" value="" style="endArrow=none;html=1;rounded=0;" edge="1" parent="1">
          <mxGeometry width="50" height="50" relative="1" as="geometry">
            <mxPoint x="400" y="393.89" as="sourcePoint" />
            <mxPoint x="430" y="394" as="targetPoint" />
            <Array as="points" />
          </mxGeometry>
        </mxCell>
        <mxCell id="Cqf3wuIxJ-Sm2hY3OM8W-27" value="" style="group" vertex="1" connectable="0" parent="1">
          <mxGeometry x="510" y="330" width="40" height="60" as="geometry" />
        </mxCell>
        <mxCell id="Cqf3wuIxJ-Sm2hY3OM8W-28" value="&lt;b&gt;&lt;font style=&quot;font-size: 14px;&quot;&gt;&lt;br&gt;&lt;br&gt;&lt;/font&gt;&lt;/b&gt;" style="rounded=0;whiteSpace=wrap;html=1;" vertex="1" parent="Cqf3wuIxJ-Sm2hY3OM8W-27">
          <mxGeometry y="10" width="30" height="50" as="geometry" />
        </mxCell>
        <mxCell id="Cqf3wuIxJ-Sm2hY3OM8W-29" value="&lt;font style=&quot;font-size: 9px;&quot;&gt;&amp;amp;&lt;/font&gt;" style="text;html=1;strokeColor=none;fillColor=none;align=center;verticalAlign=middle;whiteSpace=wrap;rounded=0;" vertex="1" parent="Cqf3wuIxJ-Sm2hY3OM8W-27">
          <mxGeometry width="40" height="30" as="geometry" />
        </mxCell>
        <mxCell id="Cqf3wuIxJ-Sm2hY3OM8W-30" value="" style="endArrow=none;html=1;rounded=0;entryX=0;entryY=0.5;entryDx=0;entryDy=0;" edge="1" parent="1">
          <mxGeometry width="50" height="50" relative="1" as="geometry">
            <mxPoint x="460" y="330" as="sourcePoint" />
            <mxPoint x="510" y="365" as="targetPoint" />
            <Array as="points">
              <mxPoint x="490" y="330" />
              <mxPoint x="490" y="365" />
            </Array>
          </mxGeometry>
        </mxCell>
        <mxCell id="Cqf3wuIxJ-Sm2hY3OM8W-31" value="" style="endArrow=none;html=1;rounded=0;" edge="1" parent="1">
          <mxGeometry width="50" height="50" relative="1" as="geometry">
            <mxPoint x="460" y="405" as="sourcePoint" />
            <mxPoint x="510" y="380" as="targetPoint" />
            <Array as="points">
              <mxPoint x="490" y="405" />
              <mxPoint x="490" y="380" />
            </Array>
          </mxGeometry>
        </mxCell>
        <mxCell id="Cqf3wuIxJ-Sm2hY3OM8W-32" value="" style="endArrow=none;html=1;rounded=0;" edge="1" parent="1" target="1FSXuBfYxupskbqtTORO-45">
          <mxGeometry width="50" height="50" relative="1" as="geometry">
            <mxPoint x="230" y="410" as="sourcePoint" />
            <mxPoint x="430" y="330" as="targetPoint" />
            <Array as="points">
              <mxPoint x="230" y="410" />
              <mxPoint x="260" y="410" />
            </Array>
          </mxGeometry>
        </mxCell>
        <mxCell id="1FSXuBfYxupskbqtTORO-45" value="-t" style="text;html=1;strokeColor=none;fillColor=none;align=center;verticalAlign=middle;whiteSpace=wrap;rounded=0;" vertex="1" parent="1">
          <mxGeometry x="220" y="405" width="40" height="30" as="geometry" />
        </mxCell>
        <mxCell id="Cqf3wuIxJ-Sm2hY3OM8W-33" value="" style="endArrow=none;html=1;rounded=0;" edge="1" parent="1">
          <mxGeometry width="50" height="50" relative="1" as="geometry">
            <mxPoint x="540" y="370" as="sourcePoint" />
            <mxPoint x="570" y="370" as="targetPoint" />
            <Array as="points" />
          </mxGeometry>
        </mxCell>
        <mxCell id="MDVLM1xXaB7gYChZdj_w-1" value="f" style="text;html=1;strokeColor=none;fillColor=none;align=center;verticalAlign=middle;whiteSpace=wrap;rounded=0;" vertex="1" parent="1">
          <mxGeometry x="570" y="355" width="30" height="30" as="geometry" />
        </mxCell>
        <mxCell id="MDVLM1xXaB7gYChZdj_w-7" value="&lt;font style=&quot;font-size: 8px;&quot;&gt;0000&lt;/font&gt;" style="text;html=1;strokeColor=none;fillColor=none;align=center;verticalAlign=middle;whiteSpace=wrap;rounded=0;" vertex="1" parent="1">
          <mxGeometry x="220" y="390" width="40" height="20" as="geometry" />
        </mxCell>
        <mxCell id="MDVLM1xXaB7gYChZdj_w-10" value="&lt;font style=&quot;font-size: 8px;&quot;&gt;1100&lt;/font&gt;" style="text;html=1;strokeColor=none;fillColor=none;align=center;verticalAlign=middle;whiteSpace=wrap;rounded=0;" vertex="1" parent="1">
          <mxGeometry x="180" y="285" width="40" height="20" as="geometry" />
        </mxCell>
        <mxCell id="MDVLM1xXaB7gYChZdj_w-12" value="&lt;font style=&quot;font-size: 8px;&quot;&gt;1111&lt;/font&gt;" style="text;html=1;strokeColor=none;fillColor=none;align=center;verticalAlign=middle;whiteSpace=wrap;rounded=0;" vertex="1" parent="1">
          <mxGeometry x="310" y="260" width="40" height="25" as="geometry" />
        </mxCell>
        <mxCell id="MDVLM1xXaB7gYChZdj_w-15" value="&lt;font style=&quot;font-size: 8px;&quot;&gt;1111&lt;/font&gt;" style="text;html=1;strokeColor=none;fillColor=none;align=center;verticalAlign=middle;whiteSpace=wrap;rounded=0;" vertex="1" parent="1">
          <mxGeometry x="450" y="305" width="40" height="25" as="geometry" />
        </mxCell>
        <mxCell id="MDVLM1xXaB7gYChZdj_w-16" value="&lt;font style=&quot;font-size: 8px;&quot;&gt;1100&lt;/font&gt;" style="text;html=1;strokeColor=none;fillColor=none;align=center;verticalAlign=middle;whiteSpace=wrap;rounded=0;" vertex="1" parent="1">
          <mxGeometry x="320" y="350" width="40" height="25" as="geometry" />
        </mxCell>
        <mxCell id="MDVLM1xXaB7gYChZdj_w-17" value="&lt;font style=&quot;font-size: 8px;&quot;&gt;1100&lt;/font&gt;" style="text;html=1;strokeColor=none;fillColor=none;align=center;verticalAlign=middle;whiteSpace=wrap;rounded=0;" vertex="1" parent="1">
          <mxGeometry x="460" y="385" width="30" height="20" as="geometry" />
        </mxCell>
        <mxCell id="MDVLM1xXaB7gYChZdj_w-22" value="&lt;font style=&quot;font-size: 8px;&quot;&gt;0011&lt;/font&gt;" style="text;html=1;strokeColor=none;fillColor=none;align=center;verticalAlign=middle;whiteSpace=wrap;rounded=0;" vertex="1" parent="1">
          <mxGeometry x="540" y="350" width="40" height="20" as="geometry" />
        </mxCell>
      </root>
    </mxGraphModel>
  </diagram>
  <diagram id="-tZJ_WncwUixhVA4KLMh" name="Страница 4">
    <mxGraphModel dx="504" dy="415" grid="1" gridSize="10" guides="1" tooltips="1" connect="1" arrows="1" fold="1" page="1" pageScale="1" pageWidth="827" pageHeight="1169" math="0" shadow="0">
      <root>
        <mxCell id="0" />
        <mxCell id="1" parent="0" />
        <mxCell id="352UUWlpneZ5ybtwujUo-1" value="" style="group" vertex="1" connectable="0" parent="1">
          <mxGeometry x="350" y="550" width="40" height="60" as="geometry" />
        </mxCell>
        <mxCell id="352UUWlpneZ5ybtwujUo-2" value="&lt;b&gt;&lt;font style=&quot;font-size: 14px;&quot;&gt;&lt;br&gt;&lt;br&gt;&lt;/font&gt;&lt;/b&gt;" style="rounded=0;whiteSpace=wrap;html=1;" vertex="1" parent="352UUWlpneZ5ybtwujUo-1">
          <mxGeometry y="10" width="30" height="50" as="geometry" />
        </mxCell>
        <mxCell id="352UUWlpneZ5ybtwujUo-3" value="&lt;font style=&quot;font-size: 9px;&quot;&gt;1&lt;/font&gt;" style="text;html=1;strokeColor=none;fillColor=none;align=center;verticalAlign=middle;whiteSpace=wrap;rounded=0;" vertex="1" parent="352UUWlpneZ5ybtwujUo-1">
          <mxGeometry width="40" height="30" as="geometry" />
        </mxCell>
        <mxCell id="352UUWlpneZ5ybtwujUo-4" value="" style="group" vertex="1" connectable="0" parent="1">
          <mxGeometry x="270" y="790" width="40" height="60" as="geometry" />
        </mxCell>
        <mxCell id="352UUWlpneZ5ybtwujUo-5" value="&lt;b&gt;&lt;font style=&quot;font-size: 14px;&quot;&gt;&lt;br&gt;&lt;br&gt;&lt;/font&gt;&lt;/b&gt;" style="rounded=0;whiteSpace=wrap;html=1;" vertex="1" parent="352UUWlpneZ5ybtwujUo-4">
          <mxGeometry y="10" width="30" height="50" as="geometry" />
        </mxCell>
        <mxCell id="352UUWlpneZ5ybtwujUo-6" value="&lt;font style=&quot;font-size: 9px;&quot;&gt;&amp;amp;&lt;/font&gt;" style="text;html=1;strokeColor=none;fillColor=none;align=center;verticalAlign=middle;whiteSpace=wrap;rounded=0;" vertex="1" parent="352UUWlpneZ5ybtwujUo-4">
          <mxGeometry width="40" height="30" as="geometry" />
        </mxCell>
        <mxCell id="352UUWlpneZ5ybtwujUo-7" value="" style="group" vertex="1" connectable="0" parent="1">
          <mxGeometry x="270" y="550" width="40" height="60" as="geometry" />
        </mxCell>
        <mxCell id="352UUWlpneZ5ybtwujUo-8" value="&lt;b&gt;&lt;font style=&quot;font-size: 14px;&quot;&gt;&lt;br&gt;&lt;br&gt;&lt;/font&gt;&lt;/b&gt;" style="rounded=0;whiteSpace=wrap;html=1;" vertex="1" parent="352UUWlpneZ5ybtwujUo-7">
          <mxGeometry y="10" width="30" height="50" as="geometry" />
        </mxCell>
        <mxCell id="352UUWlpneZ5ybtwujUo-9" value="&lt;font style=&quot;font-size: 9px;&quot;&gt;&amp;amp;&lt;/font&gt;" style="text;html=1;strokeColor=none;fillColor=none;align=center;verticalAlign=middle;whiteSpace=wrap;rounded=0;" vertex="1" parent="352UUWlpneZ5ybtwujUo-7">
          <mxGeometry width="40" height="30" as="geometry" />
        </mxCell>
        <mxCell id="352UUWlpneZ5ybtwujUo-10" value="" style="group" vertex="1" connectable="0" parent="1">
          <mxGeometry x="270" y="670" width="40" height="60" as="geometry" />
        </mxCell>
        <mxCell id="352UUWlpneZ5ybtwujUo-11" value="&lt;b&gt;&lt;font style=&quot;font-size: 14px;&quot;&gt;&lt;br&gt;&lt;br&gt;&lt;/font&gt;&lt;/b&gt;" style="rounded=0;whiteSpace=wrap;html=1;" vertex="1" parent="352UUWlpneZ5ybtwujUo-10">
          <mxGeometry y="10" width="30" height="50" as="geometry" />
        </mxCell>
        <mxCell id="352UUWlpneZ5ybtwujUo-12" value="&lt;font style=&quot;font-size: 9px;&quot;&gt;&amp;amp;&lt;/font&gt;" style="text;html=1;strokeColor=none;fillColor=none;align=center;verticalAlign=middle;whiteSpace=wrap;rounded=0;" vertex="1" parent="352UUWlpneZ5ybtwujUo-10">
          <mxGeometry width="40" height="30" as="geometry" />
        </mxCell>
        <mxCell id="352UUWlpneZ5ybtwujUo-13" value="" style="group" vertex="1" connectable="0" parent="1">
          <mxGeometry x="270" y="610" width="40" height="60" as="geometry" />
        </mxCell>
        <mxCell id="352UUWlpneZ5ybtwujUo-14" value="&lt;b&gt;&lt;font style=&quot;font-size: 14px;&quot;&gt;&lt;br&gt;&lt;br&gt;&lt;/font&gt;&lt;/b&gt;" style="rounded=0;whiteSpace=wrap;html=1;" vertex="1" parent="352UUWlpneZ5ybtwujUo-13">
          <mxGeometry y="10" width="30" height="50" as="geometry" />
        </mxCell>
        <mxCell id="352UUWlpneZ5ybtwujUo-15" value="&lt;font style=&quot;font-size: 9px;&quot;&gt;&amp;amp;&lt;/font&gt;" style="text;html=1;strokeColor=none;fillColor=none;align=center;verticalAlign=middle;whiteSpace=wrap;rounded=0;" vertex="1" parent="352UUWlpneZ5ybtwujUo-13">
          <mxGeometry width="40" height="30" as="geometry" />
        </mxCell>
        <mxCell id="352UUWlpneZ5ybtwujUo-16" value="" style="endArrow=none;html=1;rounded=0;" edge="1" parent="352UUWlpneZ5ybtwujUo-13">
          <mxGeometry width="50" height="50" relative="1" as="geometry">
            <mxPoint x="30" y="34.5" as="sourcePoint" />
            <mxPoint x="80" y="34.5" as="targetPoint" />
            <Array as="points" />
          </mxGeometry>
        </mxCell>
        <mxCell id="352UUWlpneZ5ybtwujUo-17" value="" style="group" vertex="1" connectable="0" parent="1">
          <mxGeometry x="270" y="730" width="40" height="60" as="geometry" />
        </mxCell>
        <mxCell id="352UUWlpneZ5ybtwujUo-18" value="&lt;b&gt;&lt;font style=&quot;font-size: 14px;&quot;&gt;&lt;br&gt;&lt;br&gt;&lt;/font&gt;&lt;/b&gt;" style="rounded=0;whiteSpace=wrap;html=1;" vertex="1" parent="352UUWlpneZ5ybtwujUo-17">
          <mxGeometry y="10" width="30" height="50" as="geometry" />
        </mxCell>
        <mxCell id="352UUWlpneZ5ybtwujUo-19" value="&lt;font style=&quot;font-size: 9px;&quot;&gt;&amp;amp;&lt;/font&gt;" style="text;html=1;strokeColor=none;fillColor=none;align=center;verticalAlign=middle;whiteSpace=wrap;rounded=0;" vertex="1" parent="352UUWlpneZ5ybtwujUo-17">
          <mxGeometry width="40" height="30" as="geometry" />
        </mxCell>
        <mxCell id="352UUWlpneZ5ybtwujUo-20" value="" style="endArrow=none;html=1;rounded=0;" edge="1" parent="352UUWlpneZ5ybtwujUo-17">
          <mxGeometry width="50" height="50" relative="1" as="geometry">
            <mxPoint x="-20" y="29.5" as="sourcePoint" />
            <mxPoint y="30" as="targetPoint" />
          </mxGeometry>
        </mxCell>
        <mxCell id="352UUWlpneZ5ybtwujUo-21" value="" style="endArrow=none;html=1;rounded=0;" edge="1" parent="352UUWlpneZ5ybtwujUo-17">
          <mxGeometry width="50" height="50" relative="1" as="geometry">
            <mxPoint x="30" y="30" as="sourcePoint" />
            <mxPoint x="80" y="30" as="targetPoint" />
            <Array as="points" />
          </mxGeometry>
        </mxCell>
        <mxCell id="352UUWlpneZ5ybtwujUo-22" value="" style="group" vertex="1" connectable="0" parent="1">
          <mxGeometry x="350" y="610" width="40" height="60" as="geometry" />
        </mxCell>
        <mxCell id="352UUWlpneZ5ybtwujUo-23" value="&lt;b&gt;&lt;font style=&quot;font-size: 14px;&quot;&gt;&lt;br&gt;&lt;br&gt;&lt;/font&gt;&lt;/b&gt;" style="rounded=0;whiteSpace=wrap;html=1;" vertex="1" parent="352UUWlpneZ5ybtwujUo-22">
          <mxGeometry y="10" width="30" height="50" as="geometry" />
        </mxCell>
        <mxCell id="352UUWlpneZ5ybtwujUo-24" value="&lt;font style=&quot;font-size: 9px;&quot;&gt;1&lt;/font&gt;" style="text;html=1;strokeColor=none;fillColor=none;align=center;verticalAlign=middle;whiteSpace=wrap;rounded=0;" vertex="1" parent="352UUWlpneZ5ybtwujUo-22">
          <mxGeometry width="40" height="30" as="geometry" />
        </mxCell>
        <mxCell id="352UUWlpneZ5ybtwujUo-25" value="" style="group" vertex="1" connectable="0" parent="1">
          <mxGeometry x="350" y="670" width="40" height="60" as="geometry" />
        </mxCell>
        <mxCell id="352UUWlpneZ5ybtwujUo-26" value="&lt;b&gt;&lt;font style=&quot;font-size: 14px;&quot;&gt;&lt;br&gt;&lt;br&gt;&lt;/font&gt;&lt;/b&gt;" style="rounded=0;whiteSpace=wrap;html=1;" vertex="1" parent="352UUWlpneZ5ybtwujUo-25">
          <mxGeometry y="10" width="30" height="50" as="geometry" />
        </mxCell>
        <mxCell id="352UUWlpneZ5ybtwujUo-27" value="&lt;font style=&quot;font-size: 9px;&quot;&gt;1&lt;/font&gt;" style="text;html=1;strokeColor=none;fillColor=none;align=center;verticalAlign=middle;whiteSpace=wrap;rounded=0;" vertex="1" parent="352UUWlpneZ5ybtwujUo-25">
          <mxGeometry width="40" height="30" as="geometry" />
        </mxCell>
        <mxCell id="352UUWlpneZ5ybtwujUo-28" value="" style="group" vertex="1" connectable="0" parent="1">
          <mxGeometry x="350" y="730" width="40" height="60" as="geometry" />
        </mxCell>
        <mxCell id="352UUWlpneZ5ybtwujUo-29" value="&lt;b&gt;&lt;font style=&quot;font-size: 14px;&quot;&gt;&lt;br&gt;&lt;br&gt;&lt;/font&gt;&lt;/b&gt;" style="rounded=0;whiteSpace=wrap;html=1;" vertex="1" parent="352UUWlpneZ5ybtwujUo-28">
          <mxGeometry y="10" width="30" height="50" as="geometry" />
        </mxCell>
        <mxCell id="352UUWlpneZ5ybtwujUo-30" value="&lt;font style=&quot;font-size: 9px;&quot;&gt;1&lt;/font&gt;" style="text;html=1;strokeColor=none;fillColor=none;align=center;verticalAlign=middle;whiteSpace=wrap;rounded=0;" vertex="1" parent="352UUWlpneZ5ybtwujUo-28">
          <mxGeometry width="40" height="30" as="geometry" />
        </mxCell>
        <mxCell id="352UUWlpneZ5ybtwujUo-31" value="" style="group" vertex="1" connectable="0" parent="1">
          <mxGeometry x="350" y="790" width="40" height="60" as="geometry" />
        </mxCell>
        <mxCell id="352UUWlpneZ5ybtwujUo-32" value="&lt;b&gt;&lt;font style=&quot;font-size: 14px;&quot;&gt;&lt;br&gt;&lt;br&gt;&lt;/font&gt;&lt;/b&gt;" style="rounded=0;whiteSpace=wrap;html=1;" vertex="1" parent="352UUWlpneZ5ybtwujUo-31">
          <mxGeometry y="10" width="30" height="50" as="geometry" />
        </mxCell>
        <mxCell id="352UUWlpneZ5ybtwujUo-33" value="&lt;font style=&quot;font-size: 9px;&quot;&gt;1&lt;/font&gt;" style="text;html=1;strokeColor=none;fillColor=none;align=center;verticalAlign=middle;whiteSpace=wrap;rounded=0;" vertex="1" parent="352UUWlpneZ5ybtwujUo-31">
          <mxGeometry width="40" height="30" as="geometry" />
        </mxCell>
        <mxCell id="352UUWlpneZ5ybtwujUo-34" value="" style="endArrow=none;html=1;rounded=0;" edge="1" parent="1">
          <mxGeometry width="50" height="50" relative="1" as="geometry">
            <mxPoint x="300" y="590" as="sourcePoint" />
            <mxPoint x="350" y="590" as="targetPoint" />
            <Array as="points" />
          </mxGeometry>
        </mxCell>
        <mxCell id="352UUWlpneZ5ybtwujUo-35" value="" style="endArrow=none;html=1;rounded=0;" edge="1" parent="1">
          <mxGeometry width="50" height="50" relative="1" as="geometry">
            <mxPoint x="300" y="710" as="sourcePoint" />
            <mxPoint x="350" y="710" as="targetPoint" />
            <Array as="points" />
          </mxGeometry>
        </mxCell>
        <mxCell id="352UUWlpneZ5ybtwujUo-36" value="" style="endArrow=none;html=1;rounded=0;" edge="1" parent="1">
          <mxGeometry width="50" height="50" relative="1" as="geometry">
            <mxPoint x="300" y="819.5" as="sourcePoint" />
            <mxPoint x="350" y="819.5" as="targetPoint" />
            <Array as="points" />
          </mxGeometry>
        </mxCell>
        <mxCell id="352UUWlpneZ5ybtwujUo-37" value="" style="group" vertex="1" connectable="0" parent="1">
          <mxGeometry x="480" y="670" width="40" height="60" as="geometry" />
        </mxCell>
        <mxCell id="352UUWlpneZ5ybtwujUo-38" value="&lt;b&gt;&lt;font style=&quot;font-size: 14px;&quot;&gt;&lt;br&gt;&lt;br&gt;&lt;/font&gt;&lt;/b&gt;" style="rounded=0;whiteSpace=wrap;html=1;" vertex="1" parent="352UUWlpneZ5ybtwujUo-37">
          <mxGeometry y="10" width="30" height="50" as="geometry" />
        </mxCell>
        <mxCell id="352UUWlpneZ5ybtwujUo-39" value="&lt;font style=&quot;font-size: 9px;&quot;&gt;&amp;amp;&lt;/font&gt;" style="text;html=1;strokeColor=none;fillColor=none;align=center;verticalAlign=middle;whiteSpace=wrap;rounded=0;" vertex="1" parent="352UUWlpneZ5ybtwujUo-37">
          <mxGeometry width="40" height="30" as="geometry" />
        </mxCell>
        <mxCell id="352UUWlpneZ5ybtwujUo-40" value="" style="group" vertex="1" connectable="0" parent="1">
          <mxGeometry x="550" y="670" width="40" height="60" as="geometry" />
        </mxCell>
        <mxCell id="352UUWlpneZ5ybtwujUo-41" value="&lt;b&gt;&lt;font style=&quot;font-size: 14px;&quot;&gt;&lt;br&gt;&lt;br&gt;&lt;/font&gt;&lt;/b&gt;" style="rounded=0;whiteSpace=wrap;html=1;" vertex="1" parent="352UUWlpneZ5ybtwujUo-40">
          <mxGeometry y="10" width="30" height="50" as="geometry" />
        </mxCell>
        <mxCell id="352UUWlpneZ5ybtwujUo-42" value="&lt;font style=&quot;font-size: 9px;&quot;&gt;1&lt;/font&gt;" style="text;html=1;strokeColor=none;fillColor=none;align=center;verticalAlign=middle;whiteSpace=wrap;rounded=0;" vertex="1" parent="352UUWlpneZ5ybtwujUo-40">
          <mxGeometry width="40" height="30" as="geometry" />
        </mxCell>
      </root>
    </mxGraphModel>
  </diagram>
</mxfile>
